<?xml version="1.0" encoding="UTF-8" standalone="no"?>
<svg
   class="svglite"
   width="754.56pt"
   height="347.04pt"
   viewBox="0 0 754.56 347.04"
   version="1.1"
   id="svg214"
   sodipodi:docname="conv_factors_edit.svg"
   inkscape:version="1.2.1 (9c6d41e410, 2022-07-14)"
   inkscape:export-filename="2023-05-09_conv_factors.png"
   inkscape:export-xdpi="96"
   inkscape:export-ydpi="96"
   xml:space="preserve"
   xmlns:inkscape="http://www.inkscape.org/namespaces/inkscape"
   xmlns:sodipodi="http://sodipodi.sourceforge.net/DTD/sodipodi-0.dtd"
   xmlns="http://www.w3.org/2000/svg"
   xmlns:svg="http://www.w3.org/2000/svg"><sodipodi:namedview
     id="namedview216"
     pagecolor="#ffffff"
     bordercolor="#999999"
     borderopacity="1"
     inkscape:showpageshadow="0"
     inkscape:pageopacity="0"
     inkscape:pagecheckerboard="0"
     inkscape:deskcolor="#d1d1d1"
     inkscape:document-units="pt"
     showgrid="false"
     inkscape:zoom="0.72128802"
     inkscape:cx="1267.8708"
     inkscape:cy="-11.784474"
     inkscape:window-width="1920"
     inkscape:window-height="1017"
     inkscape:window-x="1912"
     inkscape:window-y="-8"
     inkscape:window-maximized="1"
     inkscape:current-layer="svg214"><inkscape:page
       x="0"
       y="0"
       width="754.56"
       height="347.04001"
       id="page1904" /><inkscape:page
       x="764.56"
       y="0"
       width="754"
       height="347"
       id="page1906" /></sodipodi:namedview><defs
     id="defs4"><rect
       x="590.16408"
       y="430.36882"
       width="308.31662"
       height="46.075933"
       id="rect814" /><style
       type="text/css"
       id="style2"><![CDATA[
    .svglite line, .svglite polyline, .svglite polygon, .svglite path, .svglite rect, .svglite circle {
      fill: none;
      stroke: #000000;
      stroke-linecap: round;
      stroke-linejoin: round;
      stroke-miterlimit: 10.00;
    }
    .svglite text {
      white-space: pre;
    }
  ]]></style><clipPath
       clipPathUnits="userSpaceOnUse"
       id="clipPath1326"><path
         d="M 0,0 H 754.56 V 347.04 H 0 Z"
         id="path1324" /></clipPath><clipPath
       clipPathUnits="userSpaceOnUse"
       id="clipPath1338"><path
         d="M 41.09,33.79 H 383.06 V 341.56 H 41.09 Z"
         id="path1336" /></clipPath><rect
       x="590.16408"
       y="430.36882"
       width="308.31662"
       height="46.075933"
       id="rect2256" /></defs><defs
     id="defs11"><clipPath
       id="cpMC4wMHw3NTQuNTZ8MC4wMHwzNDcuMDQ="><rect
         x="0.00"
         y="0.00"
         width="754.56"
         height="347.04"
         id="rect8" /></clipPath></defs><defs
     id="defs20"><clipPath
       id="cpNDAuOTZ8Mzg2LjgyfDUuNDh8MzEzLjUx"><rect
         x="40.96"
         y="5.48"
         width="345.86"
         height="308.03"
         id="rect17" /></clipPath></defs><g
     id="g3694"
     inkscape:export-filename="conv_factors_edit.png"
     inkscape:export-xdpi="300"
     inkscape:export-ydpi="300"><g
       id="g2438"><g
         id="g1250"
         transform="matrix(0.99999996,0,0,-0.99999997,764.56,347)"><path
           d="M 0,0 H 754.56 V 347.04 H 0 Z"
           style="fill:#ffffff;fill-opacity:1;fill-rule:nonzero;stroke:none"
           id="path1252" /></g><g
         id="g1320"
         transform="matrix(0.99999996,0,0,-0.99999997,764.56,347)"><g
           id="g1322"
           clip-path="url(#clipPath1326)"><path
             d="M 0,0 H 754.56 V 347.04 H 0 Z"
             style="fill:#ffffff;fill-opacity:1;fill-rule:nonzero;stroke:#ffffff;stroke-width:1.07;stroke-linecap:round;stroke-linejoin:round;stroke-miterlimit:10;stroke-dasharray:none;stroke-opacity:1"
             id="path1328" /></g></g><g
         id="g1332"
         transform="matrix(0.99999996,0,0,-0.99999997,764.56,347)"><g
           id="g1334"
           clip-path="url(#clipPath1338)"><path
             d="M 41.09,33.79 H 383.06 V 341.56 H 41.09 Z"
             style="fill:#ffffff;fill-opacity:1;fill-rule:nonzero;stroke:none"
             id="path1340" /><path
             d="M 41.09,72.26 H 383.06"
             style="fill:none;stroke:#ebebeb;stroke-width:0.53;stroke-linecap:butt;stroke-linejoin:round;stroke-miterlimit:10;stroke-dasharray:none;stroke-opacity:1"
             id="path1342" /><path
             d="M 41.09,149.2 H 383.06"
             style="fill:none;stroke:#ebebeb;stroke-width:0.53;stroke-linecap:butt;stroke-linejoin:round;stroke-miterlimit:10;stroke-dasharray:none;stroke-opacity:1"
             id="path1344" /><path
             d="M 41.09,226.15 H 383.06"
             style="fill:none;stroke:#ebebeb;stroke-width:0.53;stroke-linecap:butt;stroke-linejoin:round;stroke-miterlimit:10;stroke-dasharray:none;stroke-opacity:1"
             id="path1346" /><path
             d="M 41.09,303.09 H 383.06"
             style="fill:none;stroke:#ebebeb;stroke-width:0.53;stroke-linecap:butt;stroke-linejoin:round;stroke-miterlimit:10;stroke-dasharray:none;stroke-opacity:1"
             id="path1348" /><path
             d="M 83.83,33.79 V 341.56"
             style="fill:none;stroke:#ebebeb;stroke-width:0.53;stroke-linecap:butt;stroke-linejoin:round;stroke-miterlimit:10;stroke-dasharray:none;stroke-opacity:1"
             id="path1350" /><path
             d="M 169.33,33.79 V 341.56"
             style="fill:none;stroke:#ebebeb;stroke-width:0.53;stroke-linecap:butt;stroke-linejoin:round;stroke-miterlimit:10;stroke-dasharray:none;stroke-opacity:1"
             id="path1352" /><path
             d="M 254.82,33.79 V 341.56"
             style="fill:none;stroke:#ebebeb;stroke-width:0.53;stroke-linecap:butt;stroke-linejoin:round;stroke-miterlimit:10;stroke-dasharray:none;stroke-opacity:1"
             id="path1354" /><path
             d="M 340.31,33.79 V 341.56"
             style="fill:none;stroke:#ebebeb;stroke-width:0.53;stroke-linecap:butt;stroke-linejoin:round;stroke-miterlimit:10;stroke-dasharray:none;stroke-opacity:1"
             id="path1356" /><path
             d="M 41.09,33.79 H 383.06"
             style="fill:none;stroke:#ebebeb;stroke-width:1.07;stroke-linecap:butt;stroke-linejoin:round;stroke-miterlimit:10;stroke-dasharray:none;stroke-opacity:1"
             id="path1358" /><path
             d="M 41.09,110.73 H 383.06"
             style="fill:none;stroke:#ebebeb;stroke-width:1.07;stroke-linecap:butt;stroke-linejoin:round;stroke-miterlimit:10;stroke-dasharray:none;stroke-opacity:1"
             id="path1360" /><path
             d="M 41.09,187.67 H 383.06"
             style="fill:none;stroke:#ebebeb;stroke-width:1.07;stroke-linecap:butt;stroke-linejoin:round;stroke-miterlimit:10;stroke-dasharray:none;stroke-opacity:1"
             id="path1362" /><path
             d="M 41.09,264.62 H 383.06"
             style="fill:none;stroke:#ebebeb;stroke-width:1.07;stroke-linecap:butt;stroke-linejoin:round;stroke-miterlimit:10;stroke-dasharray:none;stroke-opacity:1"
             id="path1364" /><path
             d="M 41.09,341.56 H 383.06"
             style="fill:none;stroke:#ebebeb;stroke-width:1.07;stroke-linecap:butt;stroke-linejoin:round;stroke-miterlimit:10;stroke-dasharray:none;stroke-opacity:1"
             id="path1366" /><path
             d="M 41.09,33.79 V 341.56"
             style="fill:none;stroke:#ebebeb;stroke-width:1.07;stroke-linecap:butt;stroke-linejoin:round;stroke-miterlimit:10;stroke-dasharray:none;stroke-opacity:1"
             id="path1368" /><path
             d="M 126.58,33.79 V 341.56"
             style="fill:none;stroke:#ebebeb;stroke-width:1.07;stroke-linecap:butt;stroke-linejoin:round;stroke-miterlimit:10;stroke-dasharray:none;stroke-opacity:1"
             id="path1370" /><path
             d="M 212.07,33.79 V 341.56"
             style="fill:none;stroke:#ebebeb;stroke-width:1.07;stroke-linecap:butt;stroke-linejoin:round;stroke-miterlimit:10;stroke-dasharray:none;stroke-opacity:1"
             id="path1372" /><path
             d="M 297.57,33.79 V 341.56"
             style="fill:none;stroke:#ebebeb;stroke-width:1.07;stroke-linecap:butt;stroke-linejoin:round;stroke-miterlimit:10;stroke-dasharray:none;stroke-opacity:1"
             id="path1374" /><path
             d="M 383.06,33.79 V 341.56"
             style="fill:none;stroke:#ebebeb;stroke-width:1.07;stroke-linecap:butt;stroke-linejoin:round;stroke-miterlimit:10;stroke-dasharray:none;stroke-opacity:1"
             id="path1376" /><path
             d="m 41.09,48.27 5.19,1.73 5.2,1.79 5.19,1.77 5.19,1.81 5.2,1.83 5.19,1.78 5.2,1.89 5.19,1.85 5.2,1.88 5.19,1.9 5.2,1.94 5.19,1.92 5.2,2.01 5.19,1.97 5.19,2 5.2,1.97 5.19,2.06 5.2,2 5.19,2.06 5.2,2.09 5.19,2.1 5.2,2.13 5.19,2.15 5.2,2.15 5.19,2.1 5.19,2.2 5.2,2.2 5.19,2.2 5.2,2.31 5.19,2.17 5.2,2.31 5.19,2.29 5.2,2.31 5.19,2.29 5.2,2.3 5.19,2.4 5.19,2.36 5.2,2.38 5.19,2.42 5.2,2.46 5.19,2.38 5.2,2.47 5.19,2.52 5.2,2.48 5.19,2.53 5.2,2.52 5.19,2.54 5.19,2.53 5.2,2.62 5.19,2.61 5.2,2.62 5.19,2.61 5.2,2.72 5.19,2.64 5.2,2.66 5.19,2.71 5.19,2.7 5.2,2.76 5.19,2.75 5.2,2.85 5.19,2.74 5.2,2.83 5.19,2.81 5.2,2.87 5.19,2.83 5.2,2.95 5.19,2.84 5.19,2.97 5.2,2.92 5.19,2.96 5.2,2.94 5.19,2.99 5.2,3.06 5.19,3.03 5.2,3.02 5.19,3.1 5.2,3.06 5.19,3.11 5.19,3.12 v -29.6 l -5.19,-3.08 -5.19,-3.05 -5.2,-3.05 -5.19,-3.06 -5.2,-3.04 -5.19,-2.99 -5.2,-2.97 -5.19,-2.95 -5.2,-2.99 -5.19,-2.88 -5.2,-2.96 -5.19,-2.87 -5.19,-2.88 -5.2,-2.88 -5.19,-2.85 -5.2,-2.84 -5.19,-2.78 -5.2,-2.8 -5.19,-2.77 -5.2,-2.79 -5.19,-2.74 -5.2,-2.76 -5.19,-2.7 -5.19,-2.73 -5.2,-2.63 -5.19,-2.68 -5.2,-2.62 -5.19,-2.65 -5.2,-2.6 -5.19,-2.63 -5.2,-2.56 -5.19,-2.52 -5.19,-2.6 -5.2,-2.49 -5.19,-2.49 -5.2,-2.54 -5.19,-2.46 -5.2,-2.47 -5.19,-2.43 -5.2,-2.39 -5.19,-2.45 -5.2,-2.39 -5.19,-2.32 -5.19,-2.4 -5.2,-2.35 -5.19,-2.29 -5.2,-2.34 -5.19,-2.24 -5.2,-2.29 -5.19,-2.24 -5.2,-2.28 -5.19,-2.18 -5.2,-2.17 -5.19,-2.22 -5.19,-2.16 -5.2,-2.12 -5.19,-2.14 -5.2,-2.12 -5.19,-2.1 -5.2,-2.08 -5.19,-2.04 -5.2,-2.07 -5.19,-2.02 -5.2,-2.01 -5.19,-1.96 -5.19,-2 -5.2,-1.94 -5.19,-1.93 -5.2,-1.94 -5.19,-1.93 -5.2,-1.84 -5.19,-1.87 -5.2,-1.86 -5.19,-1.89 -5.2,-1.76 -5.19,-1.83 -5.19,-1.77 -5.2,-1.76 -5.19,-1.72 z"
             style="fill:#bebebe;fill-opacity:0.502;fill-rule:nonzero;stroke:none"
             id="path1378" /><path
             d="m 44.51,35.57 3.42,1.79 3.42,1.78 3.42,1.79 3.42,1.78 3.42,1.79 3.41,1.78 3.42,1.79 3.42,1.78 3.42,1.79 3.42,1.78 3.42,1.79 3.42,1.78 3.42,1.79 3.42,1.78 3.42,1.79 3.42,1.78 3.42,1.79 3.42,1.78 3.42,1.79 3.42,1.78 3.42,1.79 3.42,1.78 3.42,1.79 3.42,1.78 3.42,1.79 3.42,1.78 3.42,1.79 3.42,1.78 3.42,1.79 3.42,1.78 3.42,1.79 3.42,1.78 3.42,1.79 3.42,1.78 3.42,1.79 3.42,1.78 3.42,1.79 3.42,1.79 3.42,1.78 3.42,1.79 3.42,1.78 3.42,1.79 3.41,1.78 3.42,1.79 3.42,1.78 3.42,1.79 3.42,1.78 3.42,1.79 3.42,1.78 3.42,1.79 3.42,1.78 3.42,1.79 3.42,1.78 3.42,1.79 3.42,1.78 3.42,1.79 3.42,1.78 3.42,1.79 3.42,1.78 3.42,1.79 3.42,1.78 3.42,1.79 3.42,1.78 3.42,1.79 3.42,1.78 3.42,1.79 3.42,1.78 3.42,1.79 3.42,1.78 3.42,1.79 3.42,1.78 3.42,1.79 3.42,1.78 3.42,1.79 3.42,1.78 3.42,1.79 3.42,1.78 3.42,1.79 3.42,1.78 3.42,1.79 3.41,1.78 3.42,1.79 3.42,1.78 3.42,1.79 3.42,1.78 3.42,1.79 3.42,1.78 3.42,1.79 3.42,1.78 3.42,1.79 3.42,1.78 3.42,1.79 3.42,1.78 3.42,1.79 3.42,1.79 3.42,1.78 3.42,1.79 3.42,1.78 3.42,1.79"
             style="fill:none;stroke:#30123b;stroke-width:2.13;stroke-linecap:butt;stroke-linejoin:round;stroke-miterlimit:10;stroke-dasharray:8.54, 8.54;stroke-dashoffset:0;stroke-opacity:1"
             id="path1380" /><path
             d="m 44.51,35.03 3.42,1.25 3.42,1.27 3.42,1.28 3.42,1.3 3.42,1.32 3.41,1.33 3.42,1.35 3.42,1.36 3.42,1.38 3.42,1.39 3.42,1.41 3.42,1.42 3.42,1.44 3.42,1.45 3.42,1.47 3.42,1.49 3.42,1.5 3.42,1.52 3.42,1.53 3.42,1.54 3.42,1.56 3.42,1.58 3.42,1.59 3.42,1.61 3.42,1.63 3.42,1.64 3.42,1.65 3.42,1.67 3.42,1.68 3.42,1.7 3.42,1.72 3.42,1.73 3.42,1.75 3.42,1.76 3.42,1.78 3.42,1.79 3.42,1.81 3.42,1.82 3.42,1.84 3.42,1.86 3.42,1.87 3.42,1.88 3.41,1.9 3.42,1.92 3.42,1.93 3.42,1.94 3.42,1.97 3.42,1.97 3.42,2 3.42,2.01 3.42,2.02 3.42,2.04 3.42,2.05 3.42,2.07 3.42,2.09 3.42,2.1 3.42,2.11 3.42,2.14 3.42,2.14 3.42,2.16 3.42,2.18 3.42,2.19 3.42,2.21 3.42,2.23 3.42,2.24 3.42,2.25 3.42,2.27 3.42,2.29 3.42,2.3 3.42,2.31 3.42,2.33 3.42,2.35 3.42,2.36 3.42,2.38 3.42,2.39 3.42,2.41 3.42,2.42 3.42,2.44 3.42,2.46 3.42,2.47 3.41,2.48 3.42,2.5 3.42,2.52 3.42,2.53 3.42,2.55 3.42,2.56 3.42,2.58 3.42,2.59 3.42,2.61 3.42,2.62 3.42,2.64 3.42,2.66 3.42,2.67 3.42,2.68 3.42,2.7 3.42,2.72 3.42,2.73 3.42,2.75 3.42,2.76"
             style="fill:none;stroke:#455bcd;stroke-width:2.13;stroke-linecap:butt;stroke-linejoin:round;stroke-miterlimit:10;stroke-dasharray:8.54, 8.54;stroke-dashoffset:0;stroke-opacity:1"
             id="path1382" /><path
             d="m 44.51,34.39 3.42,1.42 3.42,1.41 3.42,1.42 3.42,1.42 3.42,1.42 3.41,1.42 3.42,1.42 3.42,1.42 3.42,1.42 3.42,1.42 3.42,1.41 3.42,1.42 3.42,1.42 3.42,1.42 3.42,1.42 3.42,1.42 3.42,1.42 3.42,1.42 3.42,1.41 3.42,1.42 3.42,1.42 3.42,1.42 3.42,1.42 3.42,1.42 3.42,1.42 3.42,1.42 3.42,1.42 3.42,1.41 3.42,1.42 3.42,1.42 3.42,1.42 3.42,1.42 3.42,1.42 3.42,1.42 3.42,1.42 3.42,1.41 3.42,1.42 3.42,1.42 3.42,1.42 3.42,1.42 3.42,1.42 3.42,1.42 3.41,1.42 3.42,1.42 3.42,1.41 3.42,1.42 3.42,1.42 3.42,1.42 3.42,1.42 3.42,1.42 3.42,1.42 3.42,1.42 3.42,1.42 3.42,1.41 3.42,1.42 3.42,1.42 3.42,1.42 3.42,1.42 3.42,1.42 3.42,1.42 3.42,1.42 3.42,1.41 3.42,1.42 3.42,1.42 3.42,1.42 3.42,1.42 3.42,1.42 3.42,1.42 3.42,1.42 3.42,1.42 3.42,1.41 3.42,1.42 3.42,1.42 3.42,1.42 3.42,1.42 3.42,1.42 3.42,1.42 3.42,1.42 3.42,1.42 3.42,1.41 3.41,1.42 3.42,1.42 3.42,1.42 3.42,1.42 3.42,1.42 3.42,1.42 3.42,1.42 3.42,1.41 3.42,1.42 3.42,1.42 3.42,1.42 3.42,1.42 3.42,1.42 3.42,1.42 3.42,1.42 3.42,1.42 3.42,1.41 3.42,1.42 3.42,1.42"
             style="fill:none;stroke:#3e9bfe;stroke-width:2.13;stroke-linecap:butt;stroke-linejoin:round;stroke-miterlimit:10;stroke-dasharray:8.54, 8.54;stroke-dashoffset:0;stroke-opacity:1"
             id="path1384" /><path
             d="m 44.51,31.05 3.42,1.35 3.42,1.36 3.42,1.35 3.42,1.35 3.42,1.36 3.41,1.35 3.42,1.36 3.42,1.35 3.42,1.36 3.42,1.35 3.42,1.35 3.42,1.36 3.42,1.35 3.42,1.36 3.42,1.35 3.42,1.35 3.42,1.36 3.42,1.35 3.42,1.36 3.42,1.35 3.42,1.36 3.42,1.35 3.42,1.35 3.42,1.36 3.42,1.35 3.42,1.36 3.42,1.35 3.42,1.36 3.42,1.35 3.42,1.35 3.42,1.36 3.42,1.35 3.42,1.36 3.42,1.35 3.42,1.35 3.42,1.36 3.42,1.35 3.42,1.36 3.42,1.35 3.42,1.36 3.42,1.35 3.42,1.35 3.41,1.36 3.42,1.35 3.42,1.36 3.42,1.35 3.42,1.36 3.42,1.35 3.42,1.35 3.42,1.36 3.42,1.35 3.42,1.36 3.42,1.35 3.42,1.35 3.42,1.36 3.42,1.35 3.42,1.36 3.42,1.35 3.42,1.36 3.42,1.35 3.42,1.35 3.42,1.36 3.42,1.35 3.42,1.36 3.42,1.35 3.42,1.36 3.42,1.35 3.42,1.35 3.42,1.36 3.42,1.35 3.42,1.36 3.42,1.35 3.42,1.35 3.42,1.36 3.42,1.35 3.42,1.36 3.42,1.35 3.42,1.36 3.42,1.35 3.42,1.35 3.41,1.36 3.42,1.35 3.42,1.36 3.42,1.35 3.42,1.35 3.42,1.36 3.42,1.35 3.42,1.36 3.42,1.35 3.42,1.36 3.42,1.35 3.42,1.35 3.42,1.36 3.42,1.35 3.42,1.36 3.42,1.35 3.42,1.36 3.42,1.35 3.42,1.35"
             style="fill:none;stroke:#18d6cb;stroke-width:2.13;stroke-linecap:butt;stroke-linejoin:round;stroke-miterlimit:10;stroke-dasharray:8.54, 8.54;stroke-dashoffset:0;stroke-opacity:1"
             id="path1386" /><path
             d="m 44.51,35.24 3.42,1.45 3.42,1.46 3.42,1.46 3.42,1.47 3.42,1.47 3.41,1.48 3.42,1.49 3.42,1.48 3.42,1.5 3.42,1.5 3.42,1.5 3.42,1.51 3.42,1.51 3.42,1.52 3.42,1.52 3.42,1.53 3.42,1.53 3.42,1.54 3.42,1.54 3.42,1.55 3.42,1.55 3.42,1.56 3.42,1.56 3.42,1.57 3.42,1.57 3.42,1.58 3.42,1.58 3.42,1.59 3.42,1.59 3.42,1.6 3.42,1.6 3.42,1.6 3.42,1.62 3.42,1.61 3.42,1.62 3.42,1.63 3.42,1.63 3.42,1.64 3.42,1.64 3.42,1.64 3.42,1.65 3.42,1.66 3.41,1.66 3.42,1.67 3.42,1.67 3.42,1.67 3.42,1.68 3.42,1.69 3.42,1.69 3.42,1.69 3.42,1.7 3.42,1.71 3.42,1.71 3.42,1.71 3.42,1.72 3.42,1.73 3.42,1.73 3.42,1.73 3.42,1.74 3.42,1.75 3.42,1.75 3.42,1.75 3.42,1.76 3.42,1.76 3.42,1.77 3.42,1.78 3.42,1.78 3.42,1.78 3.42,1.79 3.42,1.79 3.42,1.8 3.42,1.8 3.42,1.81 3.42,1.82 3.42,1.82 3.42,1.82 3.42,1.83 3.42,1.83 3.42,1.84 3.42,1.84 3.41,1.85 3.42,1.85 3.42,1.86 3.42,1.86 3.42,1.87 3.42,1.87 3.42,1.88 3.42,1.88 3.42,1.89 3.42,1.89 3.42,1.9 3.42,1.9 3.42,1.91 3.42,1.91 3.42,1.92 3.42,1.92 3.42,1.92 3.42,1.94 3.42,1.93"
             style="fill:none;stroke:#46f884;stroke-width:2.13;stroke-linecap:butt;stroke-linejoin:round;stroke-miterlimit:10;stroke-dasharray:8.54, 8.54;stroke-dashoffset:0;stroke-opacity:1"
             id="path1388" /><path
             d="m 44.51,37.02 3.42,2.64 3.42,2.63 3.42,2.63 3.42,2.64 3.42,2.63 3.41,2.64 3.42,2.63 3.42,2.64 3.42,2.63 3.42,2.63 3.42,2.64 3.42,2.63 3.42,2.64 3.42,2.63 3.42,2.64 3.42,2.63 3.42,2.63 3.42,2.64 3.42,2.63 3.42,2.64 3.42,2.63 3.42,2.64 3.42,2.63 3.42,2.63 3.42,2.64 3.42,2.63 3.42,2.64 3.42,2.63 3.42,2.63 3.42,2.64 3.42,2.63 3.42,2.64 3.42,2.63 3.42,2.64 3.42,2.63 3.42,2.63 3.42,2.64 3.42,2.63 3.42,2.64 3.42,2.63 3.42,2.64 3.42,2.63 3.41,2.63 3.42,2.64 3.42,2.63 3.42,2.64 3.42,2.63 3.42,2.64 3.42,2.63 3.42,2.63 3.42,2.64 3.42,2.63 3.42,2.64 3.42,2.63 3.42,2.64 3.42,2.63 3.42,2.63 3.42,2.64 3.42,2.63 3.42,2.64 3.42,2.63 3.42,2.63 3.42,2.64 3.42,2.63 3.42,2.64 3.42,2.63 3.42,2.64 3.42,2.63 3.42,2.63 3.42,2.64 3.42,2.63 3.42,2.64 3.42,2.63 3.42,2.64 3.42,2.63 3.42,2.63 3.42,2.64 3.42,2.63 3.42,2.64 3.42,2.63 3.41,2.64 3.42,2.63 3.42,2.63 3.42,2.64 3.42,2.63 3.42,2.64 3.42,2.63 3.42,2.63 3.42,2.64 3.42,2.63 3.42,2.64 3.42,2.63 3.42,2.64 3.42,2.63 3.42,2.63 3.42,2.64 3.42,2.63 3.42,2.64 3.42,2.63"
             style="fill:none;stroke:#a2fc3c;stroke-width:2.13;stroke-linecap:butt;stroke-linejoin:round;stroke-miterlimit:10;stroke-dasharray:8.54, 8.54;stroke-dashoffset:0;stroke-opacity:1"
             id="path1390" /><path
             d="m 44.51,34.57 3.42,3.49 3.42,3.49 3.42,3.49 3.42,3.49 3.42,3.5 3.41,3.49 3.42,3.49 3.42,3.49 3.42,3.49 3.42,3.5 3.42,3.49 3.42,3.49 3.42,3.49 3.42,3.49 3.42,3.49 3.42,3.5 3.42,3.49 3.42,3.49 3.42,3.49 3.42,3.49 3.42,3.49 3.42,3.5 3.42,3.49 3.42,3.49 3.42,3.49 3.42,3.49 3.42,3.49 3.42,3.5 3.42,3.49 3.42,3.49 3.42,3.49 3.42,3.49 3.42,3.49 3.42,3.5 3.42,3.49 3.42,3.49 3.42,3.49 3.42,3.49 3.42,3.49 3.42,3.5 3.42,3.49 3.42,3.49 3.41,3.49 3.42,3.49 3.42,3.49 3.42,3.5 3.42,3.49 3.42,3.49 3.42,3.49 3.42,3.49 3.42,3.49 3.42,3.5 3.42,3.49 3.42,3.49 3.42,3.49 3.42,3.49 3.42,3.49 3.42,3.5 3.42,3.49 3.42,3.49 3.42,3.49 3.42,3.49 3.42,3.49 3.42,3.5 3.42,3.49 3.42,3.49 3.42,3.49 3.42,3.49 3.42,3.5 3.42,3.49 3.42,3.49 3.42,3.49 3.42,3.49 3.42,3.49 3.42,3.5 3.42,3.49 3.42,3.49 3.42,3.49 3.42,3.49 3.42,3.49 3.41,3.5 3.42,3.49 3.42,3.49 3.42,3.49 3.42,3.49 3.42,3.49 3.42,3.5 3.42,3.49 3.42,3.49 3.42,3.49 3.42,3.49 3.42,3.49 3.42,3.5 3.42,3.49 3.42,3.49 3.42,3.49 3.42,3.49 3.42,3.49 3.42,3.5"
             style="fill:none;stroke:#e1dd37;stroke-width:2.13;stroke-linecap:butt;stroke-linejoin:round;stroke-miterlimit:10;stroke-dasharray:8.54, 8.54;stroke-dashoffset:0;stroke-opacity:1"
             id="path1392" /><path
             d="m 44.51,29.6 3.42,1.36 3.42,1.35 3.42,1.35 3.42,1.36 3.42,1.35 3.41,1.36 3.42,1.35 3.42,1.35 3.42,1.36 3.42,1.35 3.42,1.36 3.42,1.35 3.42,1.36 3.42,1.35 3.42,1.35 3.42,1.36 3.42,1.35 3.42,1.36 3.42,1.35 3.42,1.36 3.42,1.35 3.42,1.35 3.42,1.36 3.42,1.35 3.42,1.36 3.42,1.35 3.42,1.35 3.42,1.36 3.42,1.35 3.42,1.36 3.42,1.35 3.42,1.36 3.42,1.35 3.42,1.35 3.42,1.36 3.42,1.35 3.42,1.36 3.42,1.35 3.42,1.35 3.42,1.36 3.42,1.35 3.42,1.36 3.41,1.35 3.42,1.36 3.42,1.35 3.42,1.35 3.42,1.36 3.42,1.35 3.42,1.36 3.42,1.35 3.42,1.36 3.42,1.35 3.42,1.35 3.42,1.36 3.42,1.35 3.42,1.36 3.42,1.35 3.42,1.35 3.42,1.36 3.42,1.35 3.42,1.36 3.42,1.35 3.42,1.36 3.42,1.35 3.42,1.35 3.42,1.36 3.42,1.35 3.42,1.36 3.42,1.35 3.42,1.36 3.42,1.35 3.42,1.35 3.42,1.36 3.42,1.35 3.42,1.36 3.42,1.35 3.42,1.35 3.42,1.36 3.42,1.35 3.42,1.36 3.41,1.35 3.42,1.36 3.42,1.35 3.42,1.35 3.42,1.36 3.42,1.35 3.42,1.36 3.42,1.35 3.42,1.36 3.42,1.35 3.42,1.35 3.42,1.36 3.42,1.35 3.42,1.36 3.42,1.35 3.42,1.35 3.42,1.36 3.42,1.35 3.42,1.36"
             style="fill:none;stroke:#fea632;stroke-width:2.13;stroke-linecap:butt;stroke-linejoin:round;stroke-miterlimit:10;stroke-dasharray:8.54, 8.54;stroke-dashoffset:0;stroke-opacity:1"
             id="path1394" /><path
             d="m 44.51,34.54 3.42,0.95 3.42,0.96 3.42,0.95 3.42,0.96 3.42,0.95 3.41,0.96 3.42,0.95 3.42,0.96 3.42,0.95 3.42,0.96 3.42,0.95 3.42,0.95 3.42,0.96 3.42,0.95 3.42,0.96 3.42,0.95 3.42,0.96 3.42,0.95 3.42,0.96 3.42,0.95 3.42,0.96 3.42,0.95 3.42,0.96 3.42,0.95 3.42,0.96 3.42,0.95 3.42,0.96 3.42,0.95 3.42,0.95 3.42,0.96 3.42,0.95 3.42,0.96 3.42,0.95 3.42,0.96 3.42,0.95 3.42,0.96 3.42,0.95 3.42,0.96 3.42,0.95 3.42,0.96 3.42,0.95 3.42,0.96 3.41,0.95 3.42,0.96 3.42,0.95 3.42,0.96 3.42,0.95 3.42,0.95 3.42,0.96 3.42,0.95 3.42,0.96 3.42,0.95 3.42,0.96 3.42,0.95 3.42,0.96 3.42,0.95 3.42,0.96 3.42,0.95 3.42,0.96 3.42,0.95 3.42,0.96 3.42,0.95 3.42,0.96 3.42,0.95 3.42,0.95 3.42,0.96 3.42,0.95 3.42,0.96 3.42,0.95 3.42,0.96 3.42,0.95 3.42,0.96 3.42,0.95 3.42,0.96 3.42,0.95 3.42,0.96 3.42,0.95 3.42,0.96 3.42,0.95 3.42,0.96 3.41,0.95 3.42,0.95 3.42,0.96 3.42,0.95 3.42,0.96 3.42,0.95 3.42,0.96 3.42,0.95 3.42,0.96 3.42,0.95 3.42,0.96 3.42,0.95 3.42,0.96 3.42,0.95 3.42,0.96 3.42,0.95 3.42,0.96 3.42,0.95 3.42,0.96"
             style="fill:none;stroke:#f05b12;stroke-width:2.13;stroke-linecap:butt;stroke-linejoin:round;stroke-miterlimit:10;stroke-dasharray:8.54, 8.54;stroke-dashoffset:0;stroke-opacity:1"
             id="path1396" /><path
             d="m 44.51,33.61 3.42,0.87 3.42,0.87 3.42,0.86 3.42,0.87 3.42,0.87 3.41,0.87 3.42,0.87 3.42,0.87 3.42,0.87 3.42,0.86 3.42,0.87 3.42,0.87 3.42,0.87 3.42,0.87 3.42,0.87 3.42,0.87 3.42,0.86 3.42,0.87 3.42,0.87 3.42,0.87 3.42,0.87 3.42,0.87 3.42,0.86 3.42,0.87 3.42,0.87 3.42,0.87 3.42,0.87 3.42,0.87 3.42,0.87 3.42,0.86 3.42,0.87 3.42,0.87 3.42,0.87 3.42,0.87 3.42,0.87 3.42,0.87 3.42,0.86 3.42,0.87 3.42,0.87 3.42,0.87 3.42,0.87 3.42,0.87 3.41,0.87 3.42,0.86 3.42,0.87 3.42,0.87 3.42,0.87 3.42,0.87 3.42,0.87 3.42,0.87 3.42,0.86 3.42,0.87 3.42,0.87 3.42,0.87 3.42,0.87 3.42,0.87 3.42,0.87 3.42,0.86 3.42,0.87 3.42,0.87 3.42,0.87 3.42,0.87 3.42,0.87 3.42,0.86 3.42,0.87 3.42,0.87 3.42,0.87 3.42,0.87 3.42,0.87 3.42,0.87 3.42,0.86 3.42,0.87 3.42,0.87 3.42,0.87 3.42,0.87 3.42,0.87 3.42,0.87 3.42,0.86 3.42,0.87 3.42,0.87 3.41,0.87 3.42,0.87 3.42,0.87 3.42,0.87 3.42,0.86 3.42,0.87 3.42,0.87 3.42,0.87 3.42,0.87 3.42,0.87 3.42,0.87 3.42,0.86 3.42,0.87 3.42,0.87 3.42,0.87 3.42,0.87 3.42,0.87 3.42,0.87 3.42,0.86"
             style="fill:none;stroke:#c42503;stroke-width:2.13;stroke-linecap:butt;stroke-linejoin:round;stroke-miterlimit:10;stroke-dasharray:8.54, 8.54;stroke-dashoffset:0;stroke-opacity:1"
             id="path1398" /><path
             d="m 44.51,34.46 3.42,0.78 3.42,0.81 3.42,0.85 3.42,0.86 3.42,0.89 3.41,0.89 3.42,0.92 3.42,0.92 3.42,0.93 3.42,0.94 3.42,0.95 3.42,0.96 3.42,0.97 3.42,0.97 3.42,0.98 3.42,0.99 3.42,0.99 3.42,1 3.42,1 3.42,1.01 3.42,1.01 3.42,1.02 3.42,1.02 3.42,1.02 3.42,1.03 3.42,1.04 3.42,1.03 3.42,1.04 3.42,1.05 3.42,1.05 3.42,1.05 3.42,1.05 3.42,1.06 3.42,1.06 3.42,1.07 3.42,1.06 3.42,1.07 3.42,1.08 3.42,1.07 3.42,1.08 3.42,1.08 3.42,1.09 3.41,1.08 3.42,1.09 3.42,1.09 3.42,1.1 3.42,1.09 3.42,1.1 3.42,1.1 3.42,1.1 3.42,1.11 3.42,1.1 3.42,1.11 3.42,1.11 3.42,1.12 3.42,1.11 3.42,1.12 3.42,1.12 3.42,1.12 3.42,1.12 3.42,1.13 3.42,1.12 3.42,1.13 3.42,1.13 3.42,1.13 3.42,1.13 3.42,1.14 3.42,1.14 3.42,1.13 3.42,1.14 3.42,1.15 3.42,1.14 3.42,1.14 3.42,1.15 3.42,1.15 3.42,1.15 3.42,1.15 3.42,1.15 3.42,1.15 3.42,1.16 3.41,1.15 3.42,1.16 3.42,1.16 3.42,1.16 3.42,1.16 3.42,1.17 3.42,1.16 3.42,1.17 3.42,1.17 3.42,1.17 3.42,1.17 3.42,1.17 3.42,1.17 3.42,1.17 3.42,1.18 3.42,1.17 3.42,1.18 3.42,1.18 3.42,1.18"
             style="fill:none;stroke:#7a0403;stroke-width:2.13;stroke-linecap:butt;stroke-linejoin:round;stroke-miterlimit:10;stroke-dasharray:8.54, 8.54;stroke-dashoffset:0;stroke-opacity:1"
             id="path1400" /><path
             d="m 44.51,35.03 3.42,1.25 3.42,1.25 3.42,1.25 3.42,1.26 3.42,1.27 3.41,1.27 3.42,1.27 3.42,1.28 3.42,1.29 3.42,1.28 3.42,1.3 3.42,1.29 3.42,1.3 3.42,1.31 3.42,1.31 3.42,1.31 3.42,1.32 3.42,1.33 3.42,1.32 3.42,1.34 3.42,1.33 3.42,1.35 3.42,1.34 3.42,1.35 3.42,1.36 3.42,1.36 3.42,1.36 3.42,1.37 3.42,1.37 3.42,1.38 3.42,1.38 3.42,1.39 3.42,1.39 3.42,1.4 3.42,1.4 3.42,1.4 3.42,1.41 3.42,1.42 3.42,1.41 3.42,1.43 3.42,1.42 3.42,1.44 3.41,1.43 3.42,1.44 3.42,1.45 3.42,1.45 3.42,1.45 3.42,1.46 3.42,1.47 3.42,1.46 3.42,1.48 3.42,1.47 3.42,1.48 3.42,1.49 3.42,1.49 3.42,1.5 3.42,1.49 3.42,1.51 3.42,1.51 3.42,1.51 3.42,1.52 3.42,1.52 3.42,1.53 3.42,1.53 3.42,1.53 3.42,1.54 3.42,1.55 3.42,1.55 3.42,1.55 3.42,1.56 3.42,1.56 3.42,1.57 3.42,1.57 3.42,1.57 3.42,1.58 3.42,1.59 3.42,1.59 3.42,1.59 3.42,1.6 3.42,1.6 3.41,1.61 3.42,1.61 3.42,1.62 3.42,1.62 3.42,1.63 3.42,1.63 3.42,1.63 3.42,1.64 3.42,1.64 3.42,1.65 3.42,1.66 3.42,1.65 3.42,1.66 3.42,1.67 3.42,1.67 3.42,1.68 3.42,1.68 3.42,1.68 3.42,1.69"
             style="fill:none;stroke:#000000;stroke-width:4.27;stroke-linecap:butt;stroke-linejoin:round;stroke-miterlimit:10;stroke-dasharray:none;stroke-opacity:1"
             id="path1402" /><path
             d="M 41.09,33.79 H 383.06 V 341.56 H 41.09 Z"
             style="fill:none;stroke:#333333;stroke-width:1.07;stroke-linecap:round;stroke-linejoin:round;stroke-miterlimit:10;stroke-dasharray:none;stroke-opacity:1"
             id="path1404" /></g></g><g
         id="g1436"
         transform="matrix(0.99999996,0,0,-0.99999997,764.56,347)"><text
           xml:space="preserve"
           transform="matrix(1,0,0,-1,30.6,30.2)"
           style="font-variant:normal;font-weight:normal;font-size:10px;font-family:Helvetica;-inkscape-font-specification:Helvetica;writing-mode:lr-tb;fill:#000000;fill-opacity:1;fill-rule:nonzero;stroke:none"
           id="text1440"><tspan
             x="0"
             y="0"
             id="tspan1438">0</tspan></text><text
           xml:space="preserve"
           transform="matrix(1,0,0,-1,25.04,107.14)"
           style="font-variant:normal;font-weight:normal;font-size:10px;font-family:Helvetica;-inkscape-font-specification:Helvetica;writing-mode:lr-tb;fill:#000000;fill-opacity:1;fill-rule:nonzero;stroke:none"
           id="text1444"><tspan
             x="0 5.5599999"
             y="0"
             sodipodi:role="line"
             id="tspan1442">25</tspan></text><text
           xml:space="preserve"
           transform="matrix(1,0,0,-1,25.04,184.08)"
           style="font-variant:normal;font-weight:normal;font-size:10px;font-family:Helvetica;-inkscape-font-specification:Helvetica;writing-mode:lr-tb;fill:#000000;fill-opacity:1;fill-rule:nonzero;stroke:none"
           id="text1448"><tspan
             x="0 5.5599999"
             y="0"
             sodipodi:role="line"
             id="tspan1446">50</tspan></text><text
           xml:space="preserve"
           transform="matrix(1,0,0,-1,25.04,261.03)"
           style="font-variant:normal;font-weight:normal;font-size:10px;font-family:Helvetica;-inkscape-font-specification:Helvetica;writing-mode:lr-tb;fill:#000000;fill-opacity:1;fill-rule:nonzero;stroke:none"
           id="text1452"><tspan
             x="0 5.5599999"
             y="0"
             sodipodi:role="line"
             id="tspan1450">75</tspan></text><text
           xml:space="preserve"
           transform="matrix(1,0,0,-1,19.48,337.97)"
           style="font-variant:normal;font-weight:normal;font-size:10px;font-family:Helvetica;-inkscape-font-specification:Helvetica;writing-mode:lr-tb;fill:#000000;fill-opacity:1;fill-rule:nonzero;stroke:none"
           id="text1456"><tspan
             x="0 5.5599999 11.12"
             y="0"
             sodipodi:role="line"
             id="tspan1454">100</tspan></text></g><g
         id="g1460"
         transform="matrix(0.99999996,0,0,-0.99999997,764.56,347)"><path
           d="m 38.35,33.79 h 2.74"
           style="fill:none;stroke:#333333;stroke-width:1.07;stroke-linecap:butt;stroke-linejoin:round;stroke-miterlimit:10;stroke-dasharray:none;stroke-opacity:1"
           id="path1462" /><path
           d="m 38.35,110.73 h 2.74"
           style="fill:none;stroke:#333333;stroke-width:1.07;stroke-linecap:butt;stroke-linejoin:round;stroke-miterlimit:10;stroke-dasharray:none;stroke-opacity:1"
           id="path1464" /><path
           d="m 38.35,187.67 h 2.74"
           style="fill:none;stroke:#333333;stroke-width:1.07;stroke-linecap:butt;stroke-linejoin:round;stroke-miterlimit:10;stroke-dasharray:none;stroke-opacity:1"
           id="path1466" /><path
           d="m 38.35,264.62 h 2.74"
           style="fill:none;stroke:#333333;stroke-width:1.07;stroke-linecap:butt;stroke-linejoin:round;stroke-miterlimit:10;stroke-dasharray:none;stroke-opacity:1"
           id="path1468" /><path
           d="m 38.35,341.56 h 2.74"
           style="fill:none;stroke:#333333;stroke-width:1.07;stroke-linecap:butt;stroke-linejoin:round;stroke-miterlimit:10;stroke-dasharray:none;stroke-opacity:1"
           id="path1470" /></g><g
         id="g1490"
         transform="matrix(0.99999996,0,0,-0.99999997,764.56,347)"><path
           d="m 41.09,31.05 v 2.74"
           style="fill:none;stroke:#333333;stroke-width:1.07;stroke-linecap:butt;stroke-linejoin:round;stroke-miterlimit:10;stroke-dasharray:none;stroke-opacity:1"
           id="path1492" /><path
           d="m 126.58,31.05 v 2.74"
           style="fill:none;stroke:#333333;stroke-width:1.07;stroke-linecap:butt;stroke-linejoin:round;stroke-miterlimit:10;stroke-dasharray:none;stroke-opacity:1"
           id="path1494" /><path
           d="m 212.07,31.05 v 2.74"
           style="fill:none;stroke:#333333;stroke-width:1.07;stroke-linecap:butt;stroke-linejoin:round;stroke-miterlimit:10;stroke-dasharray:none;stroke-opacity:1"
           id="path1496" /><path
           d="m 297.57,31.05 v 2.74"
           style="fill:none;stroke:#333333;stroke-width:1.07;stroke-linecap:butt;stroke-linejoin:round;stroke-miterlimit:10;stroke-dasharray:none;stroke-opacity:1"
           id="path1498" /><path
           d="m 383.06,31.05 v 2.74"
           style="fill:none;stroke:#333333;stroke-width:1.07;stroke-linecap:butt;stroke-linejoin:round;stroke-miterlimit:10;stroke-dasharray:none;stroke-opacity:1"
           id="path1500" /></g><g
         id="g1504"
         transform="matrix(0.99999996,0,0,-0.99999997,764.56,347)"><text
           xml:space="preserve"
           transform="matrix(1,0,0,-1,38.31,21.68)"
           style="font-variant:normal;font-weight:normal;font-size:10px;font-family:Helvetica;-inkscape-font-specification:Helvetica;writing-mode:lr-tb;fill:#000000;fill-opacity:1;fill-rule:nonzero;stroke:none"
           id="text1508"><tspan
             x="0"
             y="0"
             id="tspan1506">0</tspan></text><text
           xml:space="preserve"
           transform="matrix(1,0,0,-1,121.02,21.68)"
           style="font-variant:normal;font-weight:normal;font-size:10px;font-family:Helvetica;-inkscape-font-specification:Helvetica;writing-mode:lr-tb;fill:#000000;fill-opacity:1;fill-rule:nonzero;stroke:none"
           id="text1512"><tspan
             x="0 5.5599999"
             y="0"
             sodipodi:role="line"
             id="tspan1510">25</tspan></text><text
           xml:space="preserve"
           transform="matrix(1,0,0,-1,206.51,21.68)"
           style="font-variant:normal;font-weight:normal;font-size:10px;font-family:Helvetica;-inkscape-font-specification:Helvetica;writing-mode:lr-tb;fill:#000000;fill-opacity:1;fill-rule:nonzero;stroke:none"
           id="text1516"><tspan
             x="0 5.5599999"
             y="0"
             sodipodi:role="line"
             id="tspan1514">50</tspan></text><text
           xml:space="preserve"
           transform="matrix(1,0,0,-1,292.01,21.68)"
           style="font-variant:normal;font-weight:normal;font-size:10px;font-family:Helvetica;-inkscape-font-specification:Helvetica;writing-mode:lr-tb;fill:#000000;fill-opacity:1;fill-rule:nonzero;stroke:none"
           id="text1520"><tspan
             x="0 5.5599999"
             y="0"
             sodipodi:role="line"
             id="tspan1518">75</tspan></text><text
           xml:space="preserve"
           transform="matrix(1,0,0,-1,374.72,21.68)"
           style="font-variant:normal;font-weight:normal;font-size:10px;font-family:Helvetica;-inkscape-font-specification:Helvetica;writing-mode:lr-tb;fill:#000000;fill-opacity:1;fill-rule:nonzero;stroke:none"
           id="text1524"><tspan
             x="0 5.5599999 11.12"
             y="0"
             sodipodi:role="line"
             id="tspan1522">100</tspan></text></g><g
         id="g1536"
         transform="matrix(0.99999996,0,0,-0.99999997,764.56,347)"><text
           xml:space="preserve"
           transform="matrix(1,0,0,-1,151.06,8.12)"
           style="font-variant:normal;font-weight:normal;font-size:12px;font-family:Helvetica;-inkscape-font-specification:Helvetica;writing-mode:lr-tb;fill:#000000;fill-opacity:1;fill-rule:nonzero;stroke:none"
           id="text1540"><tspan
             x="0 8.0039997 14.676 17.34 20.004 23.34 30.011999 34.007999 40.68 47.352001 54.023998 56.688 62.688 66.024002 76.019997 82.692001 86.028 89.363998 96.036003 100.032 103.368 107.364 118.032"
             y="0"
             sodipodi:role="line"
             id="tspan1538">Soil organic matter (%)</tspan></text></g><g
         id="g1544"
         transform="matrix(0.99999996,0,0,-0.99999997,764.56,347)"><text
           xml:space="preserve"
           transform="matrix(0,1,1,0,14.1,125.32)"
           style="font-variant:normal;font-weight:normal;font-size:12px;font-family:Helvetica;-inkscape-font-specification:Helvetica;writing-mode:lr-tb;fill:#000000;fill-opacity:1;fill-rule:nonzero;stroke:none"
           id="text1548"><tspan
             x="0 8.0039997 14.676 17.34 20.004 23.34 30.011999 34.007999 40.68 47.352001 54.023998 56.688 62.688 66.024002 72.024002 78.695999 82.692001 89.363998 96.036003 102.708 106.044 110.04 120.708"
             y="0"
             sodipodi:role="line"
             id="tspan1546">Soil organic carbon (%)</tspan></text></g><g
         id="g1564"
         transform="matrix(0.99999996,0,0,-0.99999997,764.56,347)"><path
           d="M 394.02,34.98 H 749.08 V 340.37 H 394.02 Z"
           style="fill:#ffffff;fill-opacity:1;fill-rule:nonzero;stroke:none"
           id="path1566" /></g><g
         id="g1574"
         transform="matrix(0.99999996,0,0,-0.99999997,764.56,347)"><text
           xml:space="preserve"
           transform="matrix(1,0,0,-1,399.5,324.95)"
           style="font-variant:normal;font-weight:normal;font-size:12px;font-family:Helvetica;-inkscape-font-specification:Helvetica;writing-mode:lr-tb;fill:#000000;fill-opacity:1;fill-rule:nonzero;stroke:none"
           id="text1578"><tspan
             x="0 8.6639996 15.336 21.768 27.468 34.139999 38.136002 44.136002 46.799999 53.472 60.144001 63.48 70.152 76.823997 83.496002 90.167999 93.503998 96.167999 102.84 109.512 115.512 118.848 124.848 131.52 138.192 142.188 148.188 154.86"
             y="0"
             sodipodi:role="line"
             id="tspan1576">Conversion equations sources</tspan></text></g><g
         id="g1584"
         transform="matrix(0.99999996,0,0,-0.99999997,764.56,347)"><path
           d="m 399.5,292.46 h 14.17 v 25.2 H 399.5 Z"
           style="fill:#ffffff;fill-opacity:1;fill-rule:nonzero;stroke:none"
           id="path1586" /></g><g
         id="g1590"
         transform="matrix(0.99999996,0,0,-0.99999997,764.56,347)"><path
           d="m 400.92,305.06 h 11.33"
           style="fill:none;stroke:#30123b;stroke-width:2.13;stroke-linecap:butt;stroke-linejoin:round;stroke-miterlimit:10;stroke-dasharray:8.54, 8.54;stroke-dashoffset:0;stroke-opacity:1"
           id="path1592" /></g><g
         id="g1596"
         transform="matrix(0.99999996,0,0,-0.99999997,764.56,347)"><path
           d="m 399.5,267.26 h 14.17 v 25.2 H 399.5 Z"
           style="fill:#ffffff;fill-opacity:1;fill-rule:nonzero;stroke:none"
           id="path1598" /></g><g
         id="g1602"
         transform="matrix(0.99999996,0,0,-0.99999997,764.56,347)"><path
           d="m 400.92,279.86 h 11.33"
           style="fill:none;stroke:#455bcd;stroke-width:2.13;stroke-linecap:butt;stroke-linejoin:round;stroke-miterlimit:10;stroke-dasharray:8.54, 8.54;stroke-dashoffset:0;stroke-opacity:1"
           id="path1604" /></g><g
         id="g1608"
         transform="matrix(0.99999996,0,0,-0.99999997,764.56,347)"><path
           d="m 399.5,242.06 h 14.17 v 25.2 H 399.5 Z"
           style="fill:#ffffff;fill-opacity:1;fill-rule:nonzero;stroke:none"
           id="path1610" /></g><g
         id="g1614"
         transform="matrix(0.99999996,0,0,-0.99999997,764.56,347)"><path
           d="m 400.92,254.66 h 11.33"
           style="fill:none;stroke:#3e9bfe;stroke-width:2.13;stroke-linecap:butt;stroke-linejoin:round;stroke-miterlimit:10;stroke-dasharray:8.54, 8.54;stroke-dashoffset:0;stroke-opacity:1"
           id="path1616" /></g><g
         id="g1620"
         transform="matrix(0.99999996,0,0,-0.99999997,764.56,347)"><path
           d="m 399.5,216.86 h 14.17 v 25.2 H 399.5 Z"
           style="fill:#ffffff;fill-opacity:1;fill-rule:nonzero;stroke:none"
           id="path1622" /></g><g
         id="g1626"
         transform="matrix(0.99999996,0,0,-0.99999997,764.56,347)"><path
           d="m 400.92,229.46 h 11.33"
           style="fill:none;stroke:#18d6cb;stroke-width:2.13;stroke-linecap:butt;stroke-linejoin:round;stroke-miterlimit:10;stroke-dasharray:8.54, 8.54;stroke-dashoffset:0;stroke-opacity:1"
           id="path1628" /></g><g
         id="g1632"
         transform="matrix(0.99999996,0,0,-0.99999997,764.56,347)"><path
           d="m 399.5,191.66 h 14.17 v 25.2 H 399.5 Z"
           style="fill:#ffffff;fill-opacity:1;fill-rule:nonzero;stroke:none"
           id="path1634" /></g><g
         id="g1638"
         transform="matrix(0.99999996,0,0,-0.99999997,764.56,347)"><path
           d="m 400.92,204.26 h 11.33"
           style="fill:none;stroke:#46f884;stroke-width:2.13;stroke-linecap:butt;stroke-linejoin:round;stroke-miterlimit:10;stroke-dasharray:8.54, 8.54;stroke-dashoffset:0;stroke-opacity:1"
           id="path1640" /></g><g
         id="g1644"
         transform="matrix(0.99999996,0,0,-0.99999997,764.56,347)"><path
           d="m 399.5,166.46 h 14.17 v 25.2 H 399.5 Z"
           style="fill:#ffffff;fill-opacity:1;fill-rule:nonzero;stroke:none"
           id="path1646" /></g><g
         id="g1650"
         transform="matrix(0.99999996,0,0,-0.99999997,764.56,347)"><path
           d="m 400.92,179.06 h 11.33"
           style="fill:none;stroke:#a2fc3c;stroke-width:2.13;stroke-linecap:butt;stroke-linejoin:round;stroke-miterlimit:10;stroke-dasharray:8.54, 8.54;stroke-dashoffset:0;stroke-opacity:1"
           id="path1652" /></g><g
         id="g1656"
         transform="matrix(0.99999996,0,0,-0.99999997,764.56,347)"><path
           d="m 399.5,141.26 h 14.17 v 25.2 H 399.5 Z"
           style="fill:#ffffff;fill-opacity:1;fill-rule:nonzero;stroke:none"
           id="path1658" /></g><g
         id="g1662"
         transform="matrix(0.99999996,0,0,-0.99999997,764.56,347)"><path
           d="m 400.92,153.86 h 11.33"
           style="fill:none;stroke:#e1dd37;stroke-width:2.13;stroke-linecap:butt;stroke-linejoin:round;stroke-miterlimit:10;stroke-dasharray:8.54, 8.54;stroke-dashoffset:0;stroke-opacity:1"
           id="path1664" /></g><g
         id="g1668"
         transform="matrix(0.99999996,0,0,-0.99999997,764.56,347)"><path
           d="m 399.5,116.06 h 14.17 v 25.2 H 399.5 Z"
           style="fill:#ffffff;fill-opacity:1;fill-rule:nonzero;stroke:none"
           id="path1670" /></g><g
         id="g1674"
         transform="matrix(0.99999996,0,0,-0.99999997,764.56,347)"><path
           d="m 400.92,128.66 h 11.33"
           style="fill:none;stroke:#fea632;stroke-width:2.13;stroke-linecap:butt;stroke-linejoin:round;stroke-miterlimit:10;stroke-dasharray:8.54, 8.54;stroke-dashoffset:0;stroke-opacity:1"
           id="path1676" /></g><g
         id="g1680"
         transform="matrix(0.99999996,0,0,-0.99999997,764.56,347)"><path
           d="m 399.5,90.86 h 14.17 v 25.2 H 399.5 Z"
           style="fill:#ffffff;fill-opacity:1;fill-rule:nonzero;stroke:none"
           id="path1682" /></g><g
         id="g1686"
         transform="matrix(0.99999996,0,0,-0.99999997,764.56,347)"><path
           d="m 400.92,103.46 h 11.33"
           style="fill:none;stroke:#f05b12;stroke-width:2.13;stroke-linecap:butt;stroke-linejoin:round;stroke-miterlimit:10;stroke-dasharray:8.54, 8.54;stroke-dashoffset:0;stroke-opacity:1"
           id="path1688" /></g><g
         id="g1692"
         transform="matrix(0.99999996,0,0,-0.99999997,764.56,347)"><path
           d="m 399.5,65.66 h 14.17 v 25.2 H 399.5 Z"
           style="fill:#ffffff;fill-opacity:1;fill-rule:nonzero;stroke:none"
           id="path1694" /></g><g
         id="g1698"
         transform="matrix(0.99999996,0,0,-0.99999997,764.56,347)"><path
           d="m 400.92,78.26 h 11.33"
           style="fill:none;stroke:#c42503;stroke-width:2.13;stroke-linecap:butt;stroke-linejoin:round;stroke-miterlimit:10;stroke-dasharray:8.54, 8.54;stroke-dashoffset:0;stroke-opacity:1"
           id="path1700" /></g><g
         id="g1704"
         transform="matrix(0.99999996,0,0,-0.99999997,764.56,347)"><path
           d="m 399.5,40.46 h 14.17 v 25.2 H 399.5 Z"
           style="fill:#ffffff;fill-opacity:1;fill-rule:nonzero;stroke:none"
           id="path1706" /></g><g
         id="g1710"
         transform="matrix(0.99999996,0,0,-0.99999997,764.56,347)"><path
           d="m 400.92,53.06 h 11.33"
           style="fill:none;stroke:#7a0403;stroke-width:2.13;stroke-linecap:butt;stroke-linejoin:round;stroke-miterlimit:10;stroke-dasharray:8.54, 8.54;stroke-dashoffset:0;stroke-opacity:1"
           id="path1712" /></g><g
         id="g1720"
         transform="matrix(0.99999996,0,0,-0.99999997,764.56,347)"><text
           xml:space="preserve"
           transform="matrix(1,0,0,-1,419.65,300.75)"
           style="font-variant:normal;font-weight:normal;font-size:12px;font-family:Helvetica;-inkscape-font-specification:Helvetica;writing-mode:lr-tb;fill:#000000;fill-opacity:1;fill-rule:nonzero;stroke:none"
           id="text1724"><tspan
             x="0 8.6639996 15.336 22.007999 25.884001 32.556 39.228001 42.563999 49.236 52.571999 55.908001 62.580002 65.244003 68.580002 75.251999 81.924004 88.596001 95.267998 98.603996 102.6 111.264 117.936 121.272 124.608 130.608 133.944 142.608 146.604 153.276 159.948 165.948 169.284 172.62 181.284 187.716 196.38 199.716 207.72 214.392 221.064 224.39999 231.07201 234.408 245.256 251.92799 254.592 261.26401 267.08401 270.42001 273.75601 281.39999 288.07199 294.07199 297.40799 301.284 307.95599 310.62 313.284 319.95599"
             y="0"
             sodipodi:role="line"
             id="tspan1722">Conrad et al 2019 (Coffs Creek, New South Wales, Australia)</tspan></text></g><g
         id="g1734"
         transform="matrix(0.99999996,0,0,-0.99999997,764.56,347)"><text
           xml:space="preserve"
           transform="matrix(1,0,0,-1,419.65,275.55)"
           style="font-variant:normal;font-weight:normal;font-size:12px;font-family:Helvetica;-inkscape-font-specification:Helvetica;writing-mode:lr-tb;fill:#000000;fill-opacity:1;fill-rule:nonzero;stroke:none"
           id="text1738"><tspan
             x="0 8.6639996 12.54 19.212 22.548 25.884001 29.219999 35.891998 39.228001 42.563999 49.236 51.900002 55.236 61.908001 68.580002 75.251999 81.924004 85.260002 89.255997 95.928001 102.6 109.272 111.936 117.936 120.6 127.272 133.944 140.616 143.952 147.28799 155.952 162.62399 169.29601 175.29601 178.632 185.304 187.968 191.304 199.968 206.64 210.636 217.308 223.98 230.65199 233.98801 243.98399 250.65601 257.20801 263.88 270.552 273.216"
             y="0"
             sodipodi:role="line"
             id="tspan1736">Craft et al 1991 (Louisiana, Coastal Carbon Manual)</tspan></text></g><g
         id="g1748"
         transform="matrix(0.99999996,0,0,-0.99999997,764.56,347)"><text
           xml:space="preserve"
           transform="matrix(1,0,0,-1,419.65,250.35)"
           style="font-variant:normal;font-weight:normal;font-size:12px;font-family:Helvetica;-inkscape-font-specification:Helvetica;writing-mode:lr-tb;fill:#000000;fill-opacity:1;fill-rule:nonzero;stroke:none"
           id="text1752"><tspan
             x="0 6.6719999 13.344 16.68 19.344 26.016001 32.015999 35.352001 43.355999 50.028 56.700001 60.035999 66.708 72.708 76.043999 82.716003 86.052002 89.388 96.059998 98.723999 102.06 108.732 115.404 122.076 128.748 132.084 136.08 144.744 151.416 158.088 160.752 166.752 170.088 178.092 184.40401 189.20399 192.53999 195.87601 203.88 210.552 217.224 219.888 226.56"
             y="0"
             sodipodi:role="line"
             id="tspan1750">de los Santos et al 2022 (Cadiz Bay, Spain)</tspan></text></g><g
         id="g1762"
         transform="matrix(0.99999996,0,0,-0.99999997,764.56,347)"><text
           xml:space="preserve"
           transform="matrix(1,0,0,-1,419.65,225.15)"
           style="font-variant:normal;font-weight:normal;font-size:12px;font-family:Helvetica;-inkscape-font-specification:Helvetica;writing-mode:lr-tb;fill:#000000;fill-opacity:1;fill-rule:nonzero;stroke:none"
           id="text1766"><tspan
             x="0 9.3360004 16.007999 18.672001 21.336 24 30 33.335999 40.007999 43.344002 46.68 53.352001 56.015999 59.352001 66.024002 72.695999 79.367996 86.040001 89.375999 93.372002 101.376 108.048 114.72 121.392 128.064 134.73599 139.092 145.092 148.42799 156.43201 162.744 167.54401 170.88 174.216 182.22 186.396 189.06 192.396 195.06 201.06 207.73199 211.06799 219.73199 226.40401 229.06799 235.74001 245.73599 252.408 255.07201 261.74399"
             y="0"
             sodipodi:role="line"
             id="tspan1764">Gailis et al 2021 (Boundary Bay, British Columbia)</tspan></text></g><g
         id="g1776"
         transform="matrix(0.99999996,0,0,-0.99999997,764.56,347)"><text
           xml:space="preserve"
           transform="matrix(1,0,0,-1,419.65,199.95)"
           style="font-variant:normal;font-weight:normal;font-size:12px;font-family:Helvetica;-inkscape-font-specification:Helvetica;writing-mode:lr-tb;fill:#000000;fill-opacity:1;fill-rule:nonzero;stroke:none"
           id="text1780"><tspan
             x="0 8.6639996 15.156 23.639999 30.312 34.307999 40.98 44.316002 50.987999 54.324001 57.66 64.332001 66.996002 70.332001 77.003998 83.676003 90.348 97.019997 100.356 104.352 114.348 121.02 123.684 130.356 136.84801 140.18401 143.52 152.18401 158.856 165.528 171.528 174.864 181.536 184.2 187.536 196.2 202.87199 206.868 213.53999 220.21201 226.884 230.22 240.216 246.888 253.44 260.112 266.784 269.448"
             y="0"
             sodipodi:role="line"
             id="tspan1778">Howard et al 2014 (Maine, Coastal Carbon Manual)</tspan></text></g><g
         id="g1790"
         transform="matrix(0.99999996,0,0,-0.99999997,764.56,347)"><text
           xml:space="preserve"
           transform="matrix(1,0,0,-1,419.65,181.23)"
           style="font-variant:normal;font-weight:normal;font-size:12px;font-family:Helvetica;-inkscape-font-specification:Helvetica;writing-mode:lr-tb;fill:#000000;fill-opacity:1;fill-rule:nonzero;stroke:none"
           id="text1794"><tspan
             x="0 8.6639996 15.336 25.332001 32.004002 38.675999 42.012001 48.683998 52.02 55.355999 62.028 64.692001 68.028 74.699997 81.372002 88.043999 94.716003 98.052002 104.724 111.396 114.732 121.404 124.74 128.73599 136.74001 143.412 146.076 148.74001 154.74001 161.412 165.70799 172.38 175.04401 181.716 185.052 188.388 195.06 201.73199 208.40401 211.74001 218.412 222.588 225.252 231.924 235.25999 241.08 247.752 254.424 260.91599"
             y="0"
             sodipodi:role="line"
             id="tspan1792">Human et al 2022 eq a (Salicornia tegetaria zone,</tspan></text><text
           xml:space="preserve"
           transform="matrix(1,0,0,-1,486.37,168.27)"
           style="font-variant:normal;font-weight:normal;font-size:12px;font-family:Helvetica;-inkscape-font-specification:Helvetica;writing-mode:lr-tb;fill:#000000;fill-opacity:1;fill-rule:nonzero;stroke:none"
           id="text1798"><tspan
             x="0 8.0039997 16.488001 23.16 27.636 30.972 36.731998 43.403999 50.076 56.076 59.411999 67.416 73.416 76.751999 83.424004 90.096001 94.452003 99.251999 102.588 105.924 113.928 120.6 127.272 130.608 137.28 140.616 148.62 151.95599 156.132 158.79601 164.79601 171.468"
             y="0"
             sodipodi:role="line"
             id="tspan1796">Swartkops Estuary, South Africa)</tspan></text></g><g
         id="g1808"
         transform="matrix(0.99999996,0,0,-0.99999997,764.56,347)"><text
           xml:space="preserve"
           transform="matrix(1,0,0,-1,419.65,156.03)"
           style="font-variant:normal;font-weight:normal;font-size:12px;font-family:Helvetica;-inkscape-font-specification:Helvetica;writing-mode:lr-tb;fill:#000000;fill-opacity:1;fill-rule:nonzero;stroke:none"
           id="text1812"><tspan
             x="0 8.6639996 15.336 25.332001 32.004002 38.675999 42.012001 48.683998 52.02 55.355999 62.028 64.692001 68.028 74.699997 81.372002 88.043999 94.716003 98.052002 104.724 111.396 114.732 121.404 124.74 128.73599 136.74001 143.412 150.084 154.56 157.896 160.56 167.23199 173.90401 177.24001 187.23599 193.908 198.084 200.748 204.084 206.748 216.744 223.416 226.752 232.57201 239.244 245.916 252.408 255.744"
             y="0"
             sodipodi:role="line"
             id="tspan1810">Human et al 2022 eq b (Spartina maritima zone, </tspan></text><text
           xml:space="preserve"
           transform="matrix(1,0,0,-1,486.37,143.07)"
           style="font-variant:normal;font-weight:normal;font-size:12px;font-family:Helvetica;-inkscape-font-specification:Helvetica;writing-mode:lr-tb;fill:#000000;fill-opacity:1;fill-rule:nonzero;stroke:none"
           id="text1816"><tspan
             x="0 8.0039997 16.488001 23.16 27.636 30.972 36.731998 43.403999 50.076 56.076 59.411999 67.416 73.416 76.751999 83.424004 90.096001 94.452003 99.251999 102.588 105.924 113.928 120.6 127.272 130.608 137.28 140.616 148.62 151.95599 156.132 158.79601 164.79601 171.468"
             y="0"
             sodipodi:role="line"
             id="tspan1814">Swartkops Estuary, South Africa)</tspan></text></g><g
         id="g1826"
         transform="matrix(0.99999996,0,0,-0.99999997,764.56,347)"><text
           xml:space="preserve"
           transform="matrix(1,0,0,-1,419.65,124.35)"
           style="font-variant:normal;font-weight:normal;font-size:12px;font-family:Helvetica;-inkscape-font-specification:Helvetica;writing-mode:lr-tb;fill:#000000;fill-opacity:1;fill-rule:nonzero;stroke:none"
           id="text1830"><tspan
             x="0 7.5240002 14.196 20.868 23.844 30.516001 33.18 39.852001 43.188 49.860001 53.195999 56.532001 63.203999 65.867996 69.204002 75.875999 82.547997 89.220001 95.891998 99.227997 103.224 111.888 114.552 120.864 126.624 133.29601 139.968 146.64 153.312 156.64799 159.98399 167.98801 174.66 181.332 188.004 194.67599 198.01199 201.34801 209.35201 213.528 216.192 219.528 222.192 228.192 234.864 238.2 246.864 253.536 256.20001 262.87201 272.86801 279.54001 282.20401 288.87601"
             y="0"
             sodipodi:role="line"
             id="tspan1828">Kohfeld et al 2022 (Clayoquot Sound, British Columbia)</tspan></text></g><g
         id="g1840"
         transform="matrix(0.99999996,0,0,-0.99999997,764.56,347)"><text
           xml:space="preserve"
           transform="matrix(1,0,0,-1,419.65,99.15)"
           style="font-variant:normal;font-weight:normal;font-size:12px;font-family:Helvetica;-inkscape-font-specification:Helvetica;writing-mode:lr-tb;fill:#000000;fill-opacity:1;fill-rule:nonzero;stroke:none"
           id="text1844"><tspan
             x="0 9.9960003 16.667999 21.143999 24.48 27.143999 33.816002 39.816002 43.152 49.824001 53.16 56.495998 63.167999 65.832001 69.167999 75.839996 82.512001 89.183998 95.856003 99.192001 103.188 111.852 114.516 121.188 124.524 131.496 138.168 142.464 152.46001 159.132 165.132 171.804 175.14 177.804 184.476 191.14799 197.82001 204.492 211.164 214.5 217.836 225.24001 231.912 236.388 239.724 246.396 253.06799 259.73999 262.40399"
             y="0"
             sodipodi:role="line"
             id="tspan1842">Martins et al 2022 (Ria Formosa lagoon, Portugal)</tspan></text></g><g
         id="g1854"
         transform="matrix(0.99999996,0,0,-0.99999997,764.56,347)"><text
           xml:space="preserve"
           transform="matrix(1,0,0,-1,419.65,73.95)"
           style="font-variant:normal;font-weight:normal;font-size:12px;font-family:Helvetica;-inkscape-font-specification:Helvetica;writing-mode:lr-tb;fill:#000000;fill-opacity:1;fill-rule:nonzero;stroke:none"
           id="text1858"><tspan
             x="0 8.0039997 14.676 21.348 24.684 31.356001 37.355999 40.692001 47.363998 50.700001 54.035999 60.708 63.372002 66.708 73.379997 80.052002 86.723999 93.396004 96.732002 100.728 109.392 112.056 118.728 122.064 129.036 135.70799 140.004 150 156.672 162.672 169.34399 172.67999 175.34399 182.01601 188.688 195.36 202.032 208.70399 212.03999 215.37601 222.78 229.452 233.92799 237.26401 243.936 250.608 257.28 259.944"
             y="0"
             sodipodi:role="line"
             id="tspan1856">Santos et al 2019 (Ria Formosa lagoon, Portugal)</tspan></text></g><g
         id="g1868"
         transform="matrix(0.99999996,0,0,-0.99999997,764.56,347)"><text
           xml:space="preserve"
           transform="matrix(1,0,0,-1,419.65,48.75)"
           style="font-variant:normal;font-weight:normal;font-size:12px;font-family:Helvetica;-inkscape-font-specification:Helvetica;writing-mode:lr-tb;fill:#000000;fill-opacity:1;fill-rule:nonzero;stroke:none"
           id="text1872"><tspan
             x="0 10.848 17.52 21.516001 28.188 31.524 38.195999 41.532001 44.868 51.540001 54.203999 57.540001 64.211998 70.884003 77.556 84.227997 87.564003 91.559998 100.224 106.896 109.56 112.224 115.2 121.872 126.168 132.84 135.504 142.17599 145.51199 152.18401 158.18401 161.52 168.192 174.864 179.03999 181.70399 188.37601 194.37601"
             y="0"
             sodipodi:role="line"
             id="tspan1870">Ward et al 2021 (California estuaries)</tspan></text></g><g
         id="g2261"
         transform="translate(696.49018,11.764067)"><g
           id="g2443"
           transform="translate(64.702374,-11.764068)"><text
             xml:space="preserve"
             transform="matrix(0.75,0,0,0.75,-19.74038,-10.07532)"
             id="text2254"
             style="font-style:normal;font-variant:normal;font-weight:normal;font-stretch:normal;font-size:16px;line-height:1.15;font-family:Arial;-inkscape-font-specification:'Arial, Normal';font-variant-ligatures:normal;font-variant-caps:normal;font-variant-numeric:normal;font-variant-east-asian:normal;white-space:pre;shape-inside:url(#rect2256);display:inline"><tspan
               x="590.16406"
               y="443.98121"
               id="tspan4391">This dataset (Global)</tspan></text></g></g><g
         id="g2613"
         transform="matrix(0.99999996,0,0,-0.99999997,764.56,372.86512)"
         style="stroke:#000000"><path
           d="m 400.92,53.06 h 11.33"
           style="fill:none;stroke:#000000;stroke-width:2.13;stroke-linecap:butt;stroke-linejoin:round;stroke-miterlimit:10;stroke-dasharray:8.54, 8.54;stroke-dashoffset:0;stroke-opacity:1"
           id="path2611" /></g></g></g></svg>
