<?xml version="1.0" encoding="UTF-8" standalone="no"?>
<svg
   class="svglite"
   width="754.56pt"
   height="347.04pt"
   viewBox="0 0 754.56 347.04"
   version="1.1"
   id="svg214"
   sodipodi:docname="2023-05-09_conv_factors.svg"
   inkscape:version="1.2.1 (9c6d41e410, 2022-07-14)"
   inkscape:export-filename="2023-05-09_conv_factors.png"
   inkscape:export-xdpi="96"
   inkscape:export-ydpi="96"
   xmlns:inkscape="http://www.inkscape.org/namespaces/inkscape"
   xmlns:sodipodi="http://sodipodi.sourceforge.net/DTD/sodipodi-0.dtd"
   xmlns="http://www.w3.org/2000/svg"
   xmlns:svg="http://www.w3.org/2000/svg">
  <sodipodi:namedview
     id="namedview216"
     pagecolor="#ffffff"
     bordercolor="#999999"
     borderopacity="1"
     inkscape:showpageshadow="0"
     inkscape:pageopacity="0"
     inkscape:pagecheckerboard="0"
     inkscape:deskcolor="#d1d1d1"
     inkscape:document-units="pt"
     showgrid="false"
     inkscape:zoom="1.0200553"
     inkscape:cx="523.01086"
     inkscape:cy="131.8556"
     inkscape:window-width="1780"
     inkscape:window-height="1057"
     inkscape:window-x="1912"
     inkscape:window-y="-8"
     inkscape:window-maximized="1"
     inkscape:current-layer="g1225" />
  <defs
     id="defs4">
    <rect
       x="590.16408"
       y="430.36882"
       width="308.31662"
       height="46.075933"
       id="rect814" />
    <style
       type="text/css"
       id="style2"><![CDATA[
    .svglite line, .svglite polyline, .svglite polygon, .svglite path, .svglite rect, .svglite circle {
      fill: none;
      stroke: #000000;
      stroke-linecap: round;
      stroke-linejoin: round;
      stroke-miterlimit: 10.00;
    }
    .svglite text {
      white-space: pre;
    }
  ]]></style>
  </defs>
  <defs
     id="defs11">
    <clipPath
       id="cpMC4wMHw3NTQuNTZ8MC4wMHwzNDcuMDQ=">
      <rect
         x="0.00"
         y="0.00"
         width="754.56"
         height="347.04"
         id="rect8" />
    </clipPath>
  </defs>
  <defs
     id="defs20">
    <clipPath
       id="cpNDAuOTZ8Mzg2LjgyfDUuNDh8MzEzLjUx">
      <rect
         x="40.96"
         y="5.48"
         width="345.86"
         height="308.03"
         id="rect17" />
    </clipPath>
  </defs>
  <g
     clip-path="url(#cpMC4wMHw3NTQuNTZ8MC4wMHwzNDcuMDQ=)"
     id="g212">
    <g
       id="g1922"
       inkscape:export-filename="2023-05-09_conv_factors.png"
       inkscape:export-xdpi="96"
       inkscape:export-ydpi="96">
      <rect
         width="100%"
         height="100%"
         style="stroke:none;fill:#FFFFFF"
         id="rect6" />
      <g
         clip-path="url(#cpMC4wMHw3NTQuNTZ8MC4wMHwzNDcuMDQ=)"
         id="g15">
        <rect
           x="0.00"
           y="0.00"
           width="754.56"
           height="347.04"
           style="stroke-width: 1.07; stroke: #FFFFFF; fill: #FFFFFF;"
           id="rect13" />
      </g>
      <g
         clip-path="url(#cpNDAuOTZ8Mzg2LjgyfDUuNDh8MzEzLjUx)"
         id="g92">
        <rect
           x="40.96"
           y="5.48"
           width="345.86"
           height="308.03"
           style="stroke-width: 1.07; stroke: none; fill: #FFFFFF;"
           id="rect22" />
        <polyline
           points="40.96,275.00 386.82,275.00 "
           style="stroke-width: 0.53; stroke: #EBEBEB; stroke-linecap: butt;"
           id="polyline24" />
        <polyline
           points="40.96,198.00 386.82,198.00 "
           style="stroke-width: 0.53; stroke: #EBEBEB; stroke-linecap: butt;"
           id="polyline26" />
        <polyline
           points="40.96,120.99 386.82,120.99 "
           style="stroke-width: 0.53; stroke: #EBEBEB; stroke-linecap: butt;"
           id="polyline28" />
        <polyline
           points="40.96,43.98 386.82,43.98 "
           style="stroke-width: 0.53; stroke: #EBEBEB; stroke-linecap: butt;"
           id="polyline30" />
        <polyline
           points="84.20,313.51 84.20,5.48 "
           style="stroke-width: 0.53; stroke: #EBEBEB; stroke-linecap: butt;"
           id="polyline32" />
        <polyline
           points="170.66,313.51 170.66,5.48 "
           style="stroke-width: 0.53; stroke: #EBEBEB; stroke-linecap: butt;"
           id="polyline34" />
        <polyline
           points="257.12,313.51 257.12,5.48 "
           style="stroke-width: 0.53; stroke: #EBEBEB; stroke-linecap: butt;"
           id="polyline36" />
        <polyline
           points="343.59,313.51 343.59,5.48 "
           style="stroke-width: 0.53; stroke: #EBEBEB; stroke-linecap: butt;"
           id="polyline38" />
        <polyline
           points="40.96,313.51 386.82,313.51 "
           style="stroke-width: 1.07; stroke: #EBEBEB; stroke-linecap: butt;"
           id="polyline40" />
        <polyline
           points="40.96,236.50 386.82,236.50 "
           style="stroke-width: 1.07; stroke: #EBEBEB; stroke-linecap: butt;"
           id="polyline42" />
        <polyline
           points="40.96,159.49 386.82,159.49 "
           style="stroke-width: 1.07; stroke: #EBEBEB; stroke-linecap: butt;"
           id="polyline44" />
        <polyline
           points="40.96,82.49 386.82,82.49 "
           style="stroke-width: 1.07; stroke: #EBEBEB; stroke-linecap: butt;"
           id="polyline46" />
        <polyline
           points="40.96,5.48 386.82,5.48 "
           style="stroke-width: 1.07; stroke: #EBEBEB; stroke-linecap: butt;"
           id="polyline48" />
        <polyline
           points="40.96,313.51 40.96,5.48 "
           style="stroke-width: 1.07; stroke: #EBEBEB; stroke-linecap: butt;"
           id="polyline50" />
        <polyline
           points="127.43,313.51 127.43,5.48 "
           style="stroke-width: 1.07; stroke: #EBEBEB; stroke-linecap: butt;"
           id="polyline52" />
        <polyline
           points="213.89,313.51 213.89,5.48 "
           style="stroke-width: 1.07; stroke: #EBEBEB; stroke-linecap: butt;"
           id="polyline54" />
        <polyline
           points="300.36,313.51 300.36,5.48 "
           style="stroke-width: 1.07; stroke: #EBEBEB; stroke-linecap: butt;"
           id="polyline56" />
        <polyline
           points="386.82,313.51 386.82,5.48 "
           style="stroke-width: 1.07; stroke: #EBEBEB; stroke-linecap: butt;"
           id="polyline58" />
        <polygon
           points="40.96,299.00 46.22,297.29 51.47,295.54 56.72,293.75 61.98,291.96 67.23,290.12 72.49,288.29 77.74,286.42 82.99,284.58 88.25,282.71 93.50,280.82 98.75,278.86 104.01,276.93 109.26,274.96 114.51,273.01 119.77,271.02 125.02,269.01 130.27,266.96 135.53,264.88 140.78,262.87 146.03,260.78 151.29,258.63 156.54,256.60 161.80,254.42 167.05,252.30 172.30,250.15 177.56,247.95 182.81,245.75 188.06,243.50 193.32,241.28 198.57,239.02 203.82,236.74 209.08,234.45 214.33,232.15 219.58,229.84 224.84,227.46 230.09,225.13 235.34,222.75 240.60,220.35 245.85,217.95 251.10,215.47 256.36,213.03 261.61,210.59 266.87,208.10 272.12,205.59 277.37,203.07 282.63,200.54 287.88,197.95 293.13,195.44 298.39,192.83 303.64,190.23 308.89,187.58 314.15,184.94 319.40,182.28 324.65,179.64 329.91,176.91 335.16,174.19 340.41,171.43 345.67,168.70 350.92,165.93 356.18,163.12 361.43,160.33 366.68,157.49 371.94,154.67 377.19,151.79 382.44,148.92 387.70,146.00 392.95,143.10 398.20,140.12 403.46,137.23 408.71,134.28 413.96,131.22 419.22,128.23 424.47,125.23 429.72,122.16 434.98,119.10 440.23,116.01 445.48,112.91 450.74,109.77 455.99,106.69 455.99,136.27 450.74,139.37 445.48,142.44 440.23,145.46 434.98,148.57 429.72,151.58 424.47,154.57 419.22,157.54 413.96,160.55 408.71,163.55 403.46,166.47 398.20,169.41 392.95,172.30 387.70,175.18 382.44,178.08 377.19,180.95 371.94,183.76 366.68,186.60 361.43,189.43 356.18,192.20 350.92,194.98 345.67,197.73 340.41,200.44 335.16,203.22 329.91,205.94 324.65,208.61 319.40,211.25 314.15,213.92 308.89,216.58 303.64,219.19 298.39,221.81 293.13,224.41 287.88,226.97 282.63,229.52 277.37,232.05 272.12,234.59 266.87,237.07 261.61,239.56 256.36,242.00 251.10,244.46 245.85,246.89 240.60,249.28 235.34,251.72 230.09,254.09 224.84,256.45 219.58,258.80 214.33,261.12 209.08,263.41 203.82,265.73 198.57,267.97 193.32,270.23 188.06,272.47 182.81,274.70 177.56,276.90 172.30,279.09 167.05,281.20 161.80,283.39 156.54,285.52 151.29,287.62 146.03,289.73 140.78,291.80 135.53,293.90 130.27,295.93 125.02,297.97 119.77,299.97 114.51,301.97 109.26,303.96 104.01,305.88 98.75,307.77 93.50,309.73 88.25,311.65 82.99,313.50 77.74,315.40 72.49,317.25 67.23,319.11 61.98,320.92 56.72,322.64 51.47,324.43 46.22,326.23 40.96,327.98 "
           style="stroke-width: 0.00; stroke: none; stroke-linecap: butt; fill: #BEBEBE; fill-opacity: 0.50;"
           id="polygon60" />
        <polyline
           points="40.96,299.00 46.22,297.29 51.47,295.54 56.72,293.75 61.98,291.96 67.23,290.12 72.49,288.29 77.74,286.42 82.99,284.58 88.25,282.71 93.50,280.82 98.75,278.86 104.01,276.93 109.26,274.96 114.51,273.01 119.77,271.02 125.02,269.01 130.27,266.96 135.53,264.88 140.78,262.87 146.03,260.78 151.29,258.63 156.54,256.60 161.80,254.42 167.05,252.30 172.30,250.15 177.56,247.95 182.81,245.75 188.06,243.50 193.32,241.28 198.57,239.02 203.82,236.74 209.08,234.45 214.33,232.15 219.58,229.84 224.84,227.46 230.09,225.13 235.34,222.75 240.60,220.35 245.85,217.95 251.10,215.47 256.36,213.03 261.61,210.59 266.87,208.10 272.12,205.59 277.37,203.07 282.63,200.54 287.88,197.95 293.13,195.44 298.39,192.83 303.64,190.23 308.89,187.58 314.15,184.94 319.40,182.28 324.65,179.64 329.91,176.91 335.16,174.19 340.41,171.43 345.67,168.70 350.92,165.93 356.18,163.12 361.43,160.33 366.68,157.49 371.94,154.67 377.19,151.79 382.44,148.92 387.70,146.00 392.95,143.10 398.20,140.12 403.46,137.23 408.71,134.28 413.96,131.22 419.22,128.23 424.47,125.23 429.72,122.16 434.98,119.10 440.23,116.01 445.48,112.91 450.74,109.77 455.99,106.69 "
           style="stroke-width: 1.07; stroke: none; stroke-linecap: butt;"
           id="polyline62" />
        <polyline
           points="455.99,136.27 450.74,139.37 445.48,142.44 440.23,145.46 434.98,148.57 429.72,151.58 424.47,154.57 419.22,157.54 413.96,160.55 408.71,163.55 403.46,166.47 398.20,169.41 392.95,172.30 387.70,175.18 382.44,178.08 377.19,180.95 371.94,183.76 366.68,186.60 361.43,189.43 356.18,192.20 350.92,194.98 345.67,197.73 340.41,200.44 335.16,203.22 329.91,205.94 324.65,208.61 319.40,211.25 314.15,213.92 308.89,216.58 303.64,219.19 298.39,221.81 293.13,224.41 287.88,226.97 282.63,229.52 277.37,232.05 272.12,234.59 266.87,237.07 261.61,239.56 256.36,242.00 251.10,244.46 245.85,246.89 240.60,249.28 235.34,251.72 230.09,254.09 224.84,256.45 219.58,258.80 214.33,261.12 209.08,263.41 203.82,265.73 198.57,267.97 193.32,270.23 188.06,272.47 182.81,274.70 177.56,276.90 172.30,279.09 167.05,281.20 161.80,283.39 156.54,285.52 151.29,287.62 146.03,289.73 140.78,291.80 135.53,293.90 130.27,295.93 125.02,297.97 119.77,299.97 114.51,301.97 109.26,303.96 104.01,305.88 98.75,307.77 93.50,309.73 88.25,311.65 82.99,313.50 77.74,315.40 72.49,317.25 67.23,319.11 61.98,320.92 56.72,322.64 51.47,324.43 46.22,326.23 40.96,327.98 "
           style="stroke-width: 1.07; stroke: none; stroke-linecap: butt;"
           id="polyline64" />
        <polyline
           points="44.42,311.72 47.88,309.93 51.34,308.15 54.80,306.36 58.26,304.57 61.72,302.79 65.17,301.00 68.63,299.21 72.09,297.43 75.55,295.64 79.01,293.85 82.47,292.07 85.93,290.28 89.38,288.49 92.84,286.71 96.30,284.92 99.76,283.13 103.22,281.35 106.68,279.56 110.14,277.78 113.59,275.99 117.05,274.20 120.51,272.42 123.97,270.63 127.43,268.84 130.89,267.06 134.35,265.27 137.80,263.48 141.26,261.70 144.72,259.91 148.18,258.12 151.64,256.34 155.10,254.55 158.56,252.76 162.01,250.98 165.47,249.19 168.93,247.40 172.39,245.62 175.85,243.83 179.31,242.04 182.77,240.26 186.22,238.47 189.68,236.68 193.14,234.90 196.60,233.11 200.06,231.32 203.52,229.54 206.98,227.75 210.43,225.96 213.89,224.18 217.35,222.39 220.81,220.61 224.27,218.82 227.73,217.03 231.19,215.25 234.64,213.46 238.10,211.67 241.56,209.89 245.02,208.10 248.48,206.31 251.94,204.53 255.40,202.74 258.85,200.95 262.31,199.17 265.77,197.38 269.23,195.59 272.69,193.81 276.15,192.02 279.61,190.23 283.06,188.45 286.52,186.66 289.98,184.87 293.44,183.09 296.90,181.30 300.36,179.51 303.82,177.73 307.27,175.94 310.73,174.15 314.19,172.37 317.65,170.58 321.11,168.80 324.57,167.01 328.03,165.22 331.48,163.44 334.94,161.65 338.40,159.86 341.86,158.08 345.32,156.29 348.78,154.50 352.24,152.72 355.69,150.93 359.15,149.14 362.61,147.36 366.07,145.57 369.53,143.78 372.99,142.00 376.45,140.21 379.90,138.42 383.36,136.64 386.82,134.85 "
           style="stroke-width: 2.13; stroke: #30123B; stroke-dasharray: 11.38,11.38; stroke-linecap: butt;"
           id="polyline66" />
        <polyline
           points="44.42,312.27 47.88,311.01 51.34,309.74 54.80,308.45 58.26,307.15 61.72,305.84 65.17,304.50 68.63,303.16 72.09,301.79 75.55,300.41 79.01,299.02 82.47,297.61 85.93,296.19 89.38,294.75 92.84,293.29 96.30,291.82 99.76,290.33 103.22,288.83 106.68,287.32 110.14,285.78 113.59,284.24 117.05,282.67 120.51,281.09 123.97,279.50 127.43,277.89 130.89,276.27 134.35,274.63 137.80,272.97 141.26,271.30 144.72,269.61 148.18,267.91 151.64,266.19 155.10,264.46 158.56,262.71 162.01,260.95 165.47,259.17 168.93,257.38 172.39,255.57 175.85,253.74 179.31,251.90 182.77,250.04 186.22,248.17 189.68,246.29 193.14,244.38 196.60,242.47 200.06,240.53 203.52,238.59 206.98,236.62 210.43,234.64 213.89,232.65 217.35,230.64 220.81,228.61 224.27,226.57 227.73,224.52 231.19,222.45 234.64,220.36 238.10,218.26 241.56,216.14 245.02,214.01 248.48,211.86 251.94,209.69 255.40,207.51 258.85,205.32 262.31,203.11 265.77,200.88 269.23,198.64 272.69,196.39 276.15,194.11 279.61,191.83 283.06,189.53 286.52,187.21 289.98,184.87 293.44,182.53 296.90,180.16 300.36,177.78 303.82,175.39 307.27,172.98 310.73,170.55 314.19,168.11 317.65,165.65 321.11,163.18 324.57,160.69 328.03,158.19 331.48,155.67 334.94,153.14 338.40,150.59 341.86,148.03 345.32,145.45 348.78,142.85 352.24,140.24 355.69,137.62 359.15,134.97 362.61,132.32 366.07,129.64 369.53,126.96 372.99,124.25 376.45,121.54 379.90,118.80 383.36,116.05 386.82,113.29 "
           style="stroke-width: 2.13; stroke: #455BCD; stroke-dasharray: 11.38,11.38; stroke-linecap: butt;"
           id="polyline68" />
        <polyline
           points="44.42,313.68 47.88,312.82 51.34,311.95 54.80,311.08 58.26,310.21 61.72,309.34 65.17,308.47 68.63,307.60 72.09,306.73 75.55,305.86 79.01,304.99 82.47,304.12 85.93,303.25 89.38,302.38 92.84,301.51 96.30,300.65 99.76,299.78 103.22,298.91 106.68,298.04 110.14,297.17 113.59,296.30 117.05,295.43 120.51,294.56 123.97,293.69 127.43,292.82 130.89,291.95 134.35,291.08 137.80,290.21 141.26,289.35 144.72,288.48 148.18,287.61 151.64,286.74 155.10,285.87 158.56,285.00 162.01,284.13 165.47,283.26 168.93,282.39 172.39,281.52 175.85,280.65 179.31,279.78 182.77,278.91 186.22,278.05 189.68,277.18 193.14,276.31 196.60,275.44 200.06,274.57 203.52,273.70 206.98,272.83 210.43,271.96 213.89,271.09 217.35,270.22 220.81,269.35 224.27,268.48 227.73,267.61 231.19,266.74 234.64,265.88 238.10,265.01 241.56,264.14 245.02,263.27 248.48,262.40 251.94,261.53 255.40,260.66 258.85,259.79 262.31,258.92 265.77,258.05 269.23,257.18 272.69,256.31 276.15,255.44 279.61,254.58 283.06,253.71 286.52,252.84 289.98,251.97 293.44,251.10 296.90,250.23 300.36,249.36 303.82,248.49 307.27,247.62 310.73,246.75 314.19,245.88 317.65,245.01 321.11,244.14 324.57,243.28 328.03,242.41 331.48,241.54 334.94,240.67 338.40,239.80 341.86,238.93 345.32,238.06 348.78,237.19 352.24,236.32 355.69,235.45 359.15,234.58 362.61,233.71 366.07,232.84 369.53,231.97 372.99,231.11 376.45,230.24 379.90,229.37 383.36,228.50 386.82,227.63 "
           style="stroke-width: 2.13; stroke: #3E9BFE; stroke-dasharray: 11.38,11.38; stroke-linecap: butt;"
           id="polyline70" />
        <polyline
           points="44.42,312.91 47.88,311.49 51.34,310.07 54.80,308.65 58.26,307.23 61.72,305.81 65.17,304.39 68.63,302.97 72.09,301.55 75.55,300.13 79.01,298.71 82.47,297.29 85.93,295.87 89.38,294.45 92.84,293.03 96.30,291.61 99.76,290.19 103.22,288.77 106.68,287.35 110.14,285.93 113.59,284.51 117.05,283.09 120.51,281.67 123.97,280.25 127.43,278.83 130.89,277.41 134.35,275.99 137.80,274.57 141.26,273.15 144.72,271.73 148.18,270.31 151.64,268.89 155.10,267.47 158.56,266.05 162.01,264.63 165.47,263.21 168.93,261.79 172.39,260.37 175.85,258.95 179.31,257.53 182.77,256.11 186.22,254.69 189.68,253.27 193.14,251.85 196.60,250.43 200.06,249.01 203.52,247.59 206.98,246.17 210.43,244.75 213.89,243.33 217.35,241.91 220.81,240.49 224.27,239.07 227.73,237.65 231.19,236.23 234.64,234.81 238.10,233.39 241.56,231.97 245.02,230.55 248.48,229.13 251.94,227.71 255.40,226.29 258.85,224.87 262.31,223.45 265.77,222.03 269.23,220.61 272.69,219.19 276.15,217.77 279.61,216.35 283.06,214.93 286.52,213.51 289.98,212.09 293.44,210.67 296.90,209.25 300.36,207.83 303.82,206.41 307.27,204.99 310.73,203.57 314.19,202.15 317.65,200.73 321.11,199.31 324.57,197.89 328.03,196.47 331.48,195.05 334.94,193.63 338.40,192.21 341.86,190.79 345.32,189.37 348.78,187.95 352.24,186.53 355.69,185.11 359.15,183.69 362.61,182.27 366.07,180.85 369.53,179.43 372.99,178.01 376.45,176.59 379.90,175.17 383.36,173.75 386.82,172.33 "
           style="stroke-width: 2.13; stroke: #18D6CB; stroke-dasharray: 11.38,11.38; stroke-linecap: butt;"
           id="polyline72" />
        <polyline
           points="44.42,316.25 47.88,314.89 51.34,313.54 54.80,312.18 58.26,310.83 61.72,309.47 65.17,308.12 68.63,306.76 72.09,305.41 75.55,304.05 79.01,302.69 82.47,301.34 85.93,299.98 89.38,298.63 92.84,297.27 96.30,295.92 99.76,294.56 103.22,293.21 106.68,291.85 110.14,290.50 113.59,289.14 117.05,287.79 120.51,286.43 123.97,285.08 127.43,283.72 130.89,282.36 134.35,281.01 137.80,279.65 141.26,278.30 144.72,276.94 148.18,275.59 151.64,274.23 155.10,272.88 158.56,271.52 162.01,270.17 165.47,268.81 168.93,267.46 172.39,266.10 175.85,264.75 179.31,263.39 182.77,262.03 186.22,260.68 189.68,259.32 193.14,257.97 196.60,256.61 200.06,255.26 203.52,253.90 206.98,252.55 210.43,251.19 213.89,249.84 217.35,248.48 220.81,247.13 224.27,245.77 227.73,244.42 231.19,243.06 234.64,241.71 238.10,240.35 241.56,238.99 245.02,237.64 248.48,236.28 251.94,234.93 255.40,233.57 258.85,232.22 262.31,230.86 265.77,229.51 269.23,228.15 272.69,226.80 276.15,225.44 279.61,224.09 283.06,222.73 286.52,221.38 289.98,220.02 293.44,218.66 296.90,217.31 300.36,215.95 303.82,214.60 307.27,213.24 310.73,211.89 314.19,210.53 317.65,209.18 321.11,207.82 324.57,206.47 328.03,205.11 331.48,203.76 334.94,202.40 338.40,201.05 341.86,199.69 345.32,198.33 348.78,196.98 352.24,195.62 355.69,194.27 359.15,192.91 362.61,191.56 366.07,190.20 369.53,188.85 372.99,187.49 376.45,186.14 379.90,184.78 383.36,183.43 386.82,182.07 "
           style="stroke-width: 2.13; stroke: #46F884; stroke-dasharray: 11.38,11.38; stroke-linecap: butt;"
           id="polyline74" />
        <polyline
           points="44.42,312.06 47.88,310.60 51.34,309.14 54.80,307.68 58.26,306.21 61.72,304.73 65.17,303.25 68.63,301.77 72.09,300.28 75.55,298.78 79.01,297.28 82.47,295.78 85.93,294.27 89.38,292.75 92.84,291.24 96.30,289.71 99.76,288.18 103.22,286.65 106.68,285.11 110.14,283.57 113.59,282.02 117.05,280.46 120.51,278.90 123.97,277.34 127.43,275.77 130.89,274.20 134.35,272.62 137.80,271.04 141.26,269.45 144.72,267.86 148.18,266.26 151.64,264.66 155.10,263.05 158.56,261.43 162.01,259.82 165.47,258.19 168.93,256.57 172.39,254.93 175.85,253.30 179.31,251.65 182.77,250.01 186.22,248.35 189.68,246.70 193.14,245.04 196.60,243.37 200.06,241.70 203.52,240.02 206.98,238.34 210.43,236.65 213.89,234.96 217.35,233.26 220.81,231.56 224.27,229.85 227.73,228.14 231.19,226.43 234.64,224.71 238.10,222.98 241.56,221.25 245.02,219.51 248.48,217.77 251.94,216.03 255.40,214.27 258.85,212.52 262.31,210.76 265.77,208.99 269.23,207.22 272.69,205.45 276.15,203.67 279.61,201.88 283.06,200.09 286.52,198.30 289.98,196.50 293.44,194.69 296.90,192.88 300.36,191.07 303.82,189.25 307.27,187.42 310.73,185.59 314.19,183.76 317.65,181.92 321.11,180.07 324.57,178.22 328.03,176.37 331.48,174.51 334.94,172.65 338.40,170.78 341.86,168.90 345.32,167.02 348.78,165.14 352.24,163.25 355.69,161.36 359.15,159.46 362.61,157.55 366.07,155.65 369.53,153.73 372.99,151.81 376.45,149.89 379.90,147.96 383.36,146.03 386.82,144.09 "
           style="stroke-width: 2.13; stroke: #A2FC3C; stroke-dasharray: 11.38,11.38; stroke-linecap: butt;"
           id="polyline76" />
        <polyline
           points="44.42,310.27 47.88,307.63 51.34,305.00 54.80,302.36 58.26,299.72 61.72,297.09 65.17,294.45 68.63,291.81 72.09,289.18 75.55,286.54 79.01,283.90 82.47,281.27 85.93,278.63 89.38,275.99 92.84,273.36 96.30,270.72 99.76,268.09 103.22,265.45 106.68,262.81 110.14,260.18 113.59,257.54 117.05,254.90 120.51,252.27 123.97,249.63 127.43,246.99 130.89,244.36 134.35,241.72 137.80,239.09 141.26,236.45 144.72,233.81 148.18,231.18 151.64,228.54 155.10,225.90 158.56,223.27 162.01,220.63 165.47,217.99 168.93,215.36 172.39,212.72 175.85,210.08 179.31,207.45 182.77,204.81 186.22,202.18 189.68,199.54 193.14,196.90 196.60,194.27 200.06,191.63 203.52,188.99 206.98,186.36 210.43,183.72 213.89,181.08 217.35,178.45 220.81,175.81 224.27,173.18 227.73,170.54 231.19,167.90 234.64,165.27 238.10,162.63 241.56,159.99 245.02,157.36 248.48,154.72 251.94,152.08 255.40,149.45 258.85,146.81 262.31,144.17 265.77,141.54 269.23,138.90 272.69,136.27 276.15,133.63 279.61,130.99 283.06,128.36 286.52,125.72 289.98,123.08 293.44,120.45 296.90,117.81 300.36,115.17 303.82,112.54 307.27,109.90 310.73,107.27 314.19,104.63 317.65,101.99 321.11,99.36 324.57,96.72 328.03,94.08 331.48,91.45 334.94,88.81 338.40,86.17 341.86,83.54 345.32,80.90 348.78,78.26 352.24,75.63 355.69,72.99 359.15,70.36 362.61,67.72 366.07,65.08 369.53,62.45 372.99,59.81 376.45,57.17 379.90,54.54 383.36,51.90 386.82,49.26 "
           style="stroke-width: 2.13; stroke: #E1DD37; stroke-dasharray: 11.38,11.38; stroke-linecap: butt;"
           id="polyline78" />
        <polyline
           points="44.42,312.72 47.88,309.23 51.34,305.73 54.80,302.24 58.26,298.75 61.72,295.25 65.17,291.76 68.63,288.26 72.09,284.77 75.55,281.27 79.01,277.78 82.47,274.28 85.93,270.79 89.38,267.29 92.84,263.80 96.30,260.31 99.76,256.81 103.22,253.32 106.68,249.82 110.14,246.33 113.59,242.83 117.05,239.34 120.51,235.84 123.97,232.35 127.43,228.85 130.89,225.36 134.35,221.87 137.80,218.37 141.26,214.88 144.72,211.38 148.18,207.89 151.64,204.39 155.10,200.90 158.56,197.40 162.01,193.91 165.47,190.41 168.93,186.92 172.39,183.43 175.85,179.93 179.31,176.44 182.77,172.94 186.22,169.45 189.68,165.95 193.14,162.46 196.60,158.96 200.06,155.47 203.52,151.97 206.98,148.48 210.43,144.99 213.89,141.49 217.35,138.00 220.81,134.50 224.27,131.01 227.73,127.51 231.19,124.02 234.64,120.52 238.10,117.03 241.56,113.53 245.02,110.04 248.48,106.54 251.94,103.05 255.40,99.56 258.85,96.06 262.31,92.57 265.77,89.07 269.23,85.58 272.69,82.08 276.15,78.59 279.61,75.09 283.06,71.60 286.52,68.10 289.98,64.61 293.44,61.12 296.90,57.62 300.36,54.13 303.82,50.63 307.27,47.14 310.73,43.64 314.19,40.15 317.65,36.65 321.11,33.16 324.57,29.66 328.03,26.17 331.48,22.68 334.94,19.18 338.40,15.69 341.86,12.19 345.32,8.70 348.78,5.20 352.24,1.71 355.69,-1.79 359.15,-5.28 362.61,-8.78 366.07,-12.27 369.53,-15.76 372.99,-19.26 376.45,-22.75 379.90,-26.25 383.36,-29.74 386.82,-33.24 "
           style="stroke-width: 2.13; stroke: #FEA632; stroke-dasharray: 11.38,11.38; stroke-linecap: butt;"
           id="polyline80" />
        <polyline
           points="44.42,317.70 47.88,316.34 51.34,314.98 54.80,313.63 58.26,312.27 61.72,310.92 65.17,309.56 68.63,308.21 72.09,306.85 75.55,305.50 79.01,304.14 82.47,302.79 85.93,301.43 89.38,300.08 92.84,298.72 96.30,297.37 99.76,296.01 103.22,294.65 106.68,293.30 110.14,291.94 113.59,290.59 117.05,289.23 120.51,287.88 123.97,286.52 127.43,285.17 130.89,283.81 134.35,282.46 137.80,281.10 141.26,279.75 144.72,278.39 148.18,277.04 151.64,275.68 155.10,274.33 158.56,272.97 162.01,271.61 165.47,270.26 168.93,268.90 172.39,267.55 175.85,266.19 179.31,264.84 182.77,263.48 186.22,262.13 189.68,260.77 193.14,259.42 196.60,258.06 200.06,256.71 203.52,255.35 206.98,254.00 210.43,252.64 213.89,251.28 217.35,249.93 220.81,248.57 224.27,247.22 227.73,245.86 231.19,244.51 234.64,243.15 238.10,241.80 241.56,240.44 245.02,239.09 248.48,237.73 251.94,236.38 255.40,235.02 258.85,233.67 262.31,232.31 265.77,230.95 269.23,229.60 272.69,228.24 276.15,226.89 279.61,225.53 283.06,224.18 286.52,222.82 289.98,221.47 293.44,220.11 296.90,218.76 300.36,217.40 303.82,216.05 307.27,214.69 310.73,213.34 314.19,211.98 317.65,210.63 321.11,209.27 324.57,207.91 328.03,206.56 331.48,205.20 334.94,203.85 338.40,202.49 341.86,201.14 345.32,199.78 348.78,198.43 352.24,197.07 355.69,195.72 359.15,194.36 362.61,193.01 366.07,191.65 369.53,190.30 372.99,188.94 376.45,187.58 379.90,186.23 383.36,184.87 386.82,183.52 "
           style="stroke-width: 2.13; stroke: #F05B12; stroke-dasharray: 11.38,11.38; stroke-linecap: butt;"
           id="polyline82" />
        <polyline
           points="44.42,312.75 47.88,311.80 51.34,310.84 54.80,309.89 58.26,308.93 61.72,307.98 65.17,307.02 68.63,306.07 72.09,305.11 75.55,304.15 79.01,303.20 82.47,302.24 85.93,301.29 89.38,300.33 92.84,299.38 96.30,298.42 99.76,297.47 103.22,296.51 106.68,295.55 110.14,294.60 113.59,293.64 117.05,292.69 120.51,291.73 123.97,290.78 127.43,289.82 130.89,288.87 134.35,287.91 137.80,286.96 141.26,286.00 144.72,285.04 148.18,284.09 151.64,283.13 155.10,282.18 158.56,281.22 162.01,280.27 165.47,279.31 168.93,278.36 172.39,277.40 175.85,276.44 179.31,275.49 182.77,274.53 186.22,273.58 189.68,272.62 193.14,271.67 196.60,270.71 200.06,269.76 203.52,268.80 206.98,267.85 210.43,266.89 213.89,265.93 217.35,264.98 220.81,264.02 224.27,263.07 227.73,262.11 231.19,261.16 234.64,260.20 238.10,259.25 241.56,258.29 245.02,257.33 248.48,256.38 251.94,255.42 255.40,254.47 258.85,253.51 262.31,252.56 265.77,251.60 269.23,250.65 272.69,249.69 276.15,248.74 279.61,247.78 283.06,246.82 286.52,245.87 289.98,244.91 293.44,243.96 296.90,243.00 300.36,242.05 303.82,241.09 307.27,240.14 310.73,239.18 314.19,238.23 317.65,237.27 321.11,236.31 324.57,235.36 328.03,234.40 331.48,233.45 334.94,232.49 338.40,231.54 341.86,230.58 345.32,229.63 348.78,228.67 352.24,227.71 355.69,226.76 359.15,225.80 362.61,224.85 366.07,223.89 369.53,222.94 372.99,221.98 376.45,221.03 379.90,220.07 383.36,219.12 386.82,218.16 "
           style="stroke-width: 2.13; stroke: #C42503; stroke-dasharray: 11.38,11.38; stroke-linecap: butt;"
           id="polyline84" />
        <polyline
           points="44.42,312.83 47.88,312.05 51.34,311.24 54.80,310.39 58.26,309.53 61.72,308.64 65.17,307.74 68.63,306.83 72.09,305.91 75.55,304.97 79.01,304.03 82.47,303.08 85.93,302.12 89.38,301.15 92.84,300.18 96.30,299.20 99.76,298.21 103.22,297.22 106.68,296.22 110.14,295.22 113.59,294.21 117.05,293.20 120.51,292.18 123.97,291.16 127.43,290.13 130.89,289.10 134.35,288.07 137.80,287.03 141.26,285.99 144.72,284.94 148.18,283.89 151.64,282.84 155.10,281.78 158.56,280.72 162.01,279.66 165.47,278.60 168.93,277.53 172.39,276.46 175.85,275.38 179.31,274.31 182.77,273.23 186.22,272.15 189.68,271.06 193.14,269.97 196.60,268.88 200.06,267.79 203.52,266.70 206.98,265.60 210.43,264.50 213.89,263.40 217.35,262.30 220.81,261.19 224.27,260.08 227.73,258.98 231.19,257.86 234.64,256.75 238.10,255.63 241.56,254.52 245.02,253.40 248.48,252.27 251.94,251.15 255.40,250.03 258.85,248.90 262.31,247.77 265.77,246.64 269.23,245.51 272.69,244.37 276.15,243.24 279.61,242.10 283.06,240.96 286.52,239.82 289.98,238.68 293.44,237.53 296.90,236.39 300.36,235.24 303.82,234.09 307.27,232.94 310.73,231.79 314.19,230.64 317.65,229.48 321.11,228.32 324.57,227.17 328.03,226.01 331.48,224.85 334.94,223.69 338.40,222.52 341.86,221.36 345.32,220.19 348.78,219.03 352.24,217.86 355.69,216.69 359.15,215.52 362.61,214.34 366.07,213.17 369.53,212.00 372.99,210.82 376.45,209.64 379.90,208.46 383.36,207.29 386.82,206.10 "
           style="stroke-width: 2.13; stroke: #7A0403; stroke-dasharray: 11.38,11.38; stroke-linecap: butt;"
           id="polyline86" />
        <polyline
           points="44.42,312.26 47.88,311.01 51.34,309.76 54.80,308.50 58.26,307.24 61.72,305.98 65.17,304.71 68.63,303.43 72.09,302.15 75.55,300.87 79.01,299.58 82.47,298.29 85.93,296.99 89.38,295.69 92.84,294.38 96.30,293.07 99.76,291.75 103.22,290.43 106.68,289.11 110.14,287.78 113.59,286.44 117.05,285.11 120.51,283.76 123.97,282.42 127.43,281.06 130.89,279.71 134.35,278.35 137.80,276.98 141.26,275.61 144.72,274.24 148.18,272.86 151.64,271.47 155.10,270.09 158.56,268.69 162.01,267.30 165.47,265.90 168.93,264.49 172.39,263.08 175.85,261.66 179.31,260.24 182.77,258.82 186.22,257.39 189.68,255.96 193.14,254.52 196.60,253.08 200.06,251.63 203.52,250.18 206.98,248.73 210.43,247.27 213.89,245.80 217.35,244.33 220.81,242.86 224.27,241.38 227.73,239.90 231.19,238.41 234.64,236.92 238.10,235.42 241.56,233.92 245.02,232.42 248.48,230.91 251.94,229.39 255.40,227.88 258.85,226.35 262.31,224.82 265.77,223.29 269.23,221.76 272.69,220.21 276.15,218.67 279.61,217.12 283.06,215.56 286.52,214.00 289.98,212.44 293.44,210.87 296.90,209.30 300.36,207.72 303.82,206.14 307.27,204.55 310.73,202.96 314.19,201.37 317.65,199.77 321.11,198.16 324.57,196.55 328.03,194.94 331.48,193.32 334.94,191.70 338.40,190.07 341.86,188.44 345.32,186.81 348.78,185.17 352.24,183.52 355.69,181.87 359.15,180.22 362.61,178.56 366.07,176.90 369.53,175.23 372.99,173.56 376.45,171.88 379.90,170.20 383.36,168.51 386.82,166.82 "
           style="stroke-width: 4.27; stroke-linecap: butt;"
           id="polyline88" />
        <rect
           x="40.96"
           y="5.48"
           width="345.86"
           height="308.03"
           style="stroke-width: 1.07; stroke: #333333;"
           id="rect90" />
      </g>
      <g
         id="g1225">
        <text
           x="36.03"
           y="317.09"
           text-anchor="end"
           style="font-size:10px;font-family:'Arial'"
           textLength="5.57px"
           lengthAdjust="spacingAndGlyphs"
           id="text94">0</text>
        <text
           x="36.03"
           y="240.08"
           text-anchor="end"
           style="font-size:10px;font-family:'Arial'"
           textLength="11.13px"
           lengthAdjust="spacingAndGlyphs"
           id="text96">25</text>
        <text
           x="36.03"
           y="163.07"
           text-anchor="end"
           style="font-size:10px;font-family:'Arial'"
           textLength="11.13px"
           lengthAdjust="spacingAndGlyphs"
           id="text98">50</text>
        <text
           x="36.03"
           y="86.07"
           text-anchor="end"
           style="font-size:10px;font-family:'Arial'"
           textLength="11.13px"
           lengthAdjust="spacingAndGlyphs"
           id="text100">75</text>
        <text
           x="36.03"
           y="9.06"
           text-anchor="end"
           style="font-size:10px;font-family:'Arial'"
           textLength="16.70px"
           lengthAdjust="spacingAndGlyphs"
           id="text102">100</text>
        <polyline
           points="38.22,313.51 40.96,313.51 "
           style="stroke-width:1.07;stroke:#333333;stroke-linecap:butt"
           id="polyline104" />
        <polyline
           points="38.22,236.50 40.96,236.50 "
           style="stroke-width:1.07;stroke:#333333;stroke-linecap:butt"
           id="polyline106" />
        <polyline
           points="38.22,159.49 40.96,159.49 "
           style="stroke-width:1.07;stroke:#333333;stroke-linecap:butt"
           id="polyline108" />
        <polyline
           points="38.22,82.49 40.96,82.49 "
           style="stroke-width:1.07;stroke:#333333;stroke-linecap:butt"
           id="polyline110" />
        <polyline
           points="38.22,5.48 40.96,5.48 "
           style="stroke-width:1.07;stroke:#333333;stroke-linecap:butt"
           id="polyline112" />
        <polyline
           points="40.96,316.25 40.96,313.51 "
           style="stroke-width:1.07;stroke:#333333;stroke-linecap:butt"
           id="polyline114" />
        <polyline
           points="127.43,316.25 127.43,313.51 "
           style="stroke-width:1.07;stroke:#333333;stroke-linecap:butt"
           id="polyline116" />
        <polyline
           points="213.89,316.25 213.89,313.51 "
           style="stroke-width:1.07;stroke:#333333;stroke-linecap:butt"
           id="polyline118" />
        <polyline
           points="300.36,316.25 300.36,313.51 "
           style="stroke-width:1.07;stroke:#333333;stroke-linecap:butt"
           id="polyline120" />
        <polyline
           points="386.82,316.25 386.82,313.51 "
           style="stroke-width:1.07;stroke:#333333;stroke-linecap:butt"
           id="polyline122" />
        <text
           x="40.96"
           y="325.60"
           text-anchor="middle"
           style="font-size:10px;font-family:'Arial'"
           textLength="5.57px"
           lengthAdjust="spacingAndGlyphs"
           id="text124">0</text>
        <text
           x="127.43"
           y="325.60"
           text-anchor="middle"
           style="font-size:10px;font-family:'Arial'"
           textLength="11.13px"
           lengthAdjust="spacingAndGlyphs"
           id="text126">25</text>
        <text
           x="213.89"
           y="325.60"
           text-anchor="middle"
           style="font-size:10px;font-family:'Arial'"
           textLength="11.13px"
           lengthAdjust="spacingAndGlyphs"
           id="text128">50</text>
        <text
           x="300.36"
           y="325.60"
           text-anchor="middle"
           style="font-size:10px;font-family:'Arial'"
           textLength="11.13px"
           lengthAdjust="spacingAndGlyphs"
           id="text130">75</text>
        <text
           x="386.82"
           y="325.60"
           text-anchor="middle"
           style="font-size:10px;font-family:'Arial'"
           textLength="16.70px"
           lengthAdjust="spacingAndGlyphs"
           id="text132">100</text>
        <text
           x="213.89"
           y="339.04"
           text-anchor="middle"
           style="font-size:12px;font-family:'Arial'"
           textLength="122.05px"
           lengthAdjust="spacingAndGlyphs"
           id="text134">Soil organic matter (%)</text>
        <text
           transform="translate(14.08,159.49) rotate(-90)"
           text-anchor="middle"
           style="font-size:12px;font-family:'Arial'"
           textLength="124.73px"
           lengthAdjust="spacingAndGlyphs"
           id="text136">Soil organic carbon (%)</text>
        <rect
           x="397.78"
           y="6.87"
           width="351.30"
           height="305.25"
           style="stroke-width:1.07;stroke:none;fill:#FFFFFF"
           id="rect138" />
        <text
           x="403.26"
           y="22.20"
           style="font-size:12px;font-family:'Arial'"
           textLength="161.46px"
           lengthAdjust="spacingAndGlyphs"
           id="text140">Conversion equations sources</text>
        <rect
           x="403.26"
           y="29.44"
           width="14.17"
           height="25.20"
           style="stroke-width:1.07;stroke:none;fill:#FFFFFF"
           id="rect142" />
        <line
           x1="404.68"
           y1="42.04"
           x2="416.01"
           y2="42.04"
           style="stroke-width:2.13;stroke:#30123B;stroke-dasharray:11.38, 11.38;stroke-linecap:butt"
           id="line144" />
        <rect
           x="403.26"
           y="54.64"
           width="14.17"
           height="25.20"
           style="stroke-width:1.07;stroke:none;fill:#FFFFFF"
           id="rect146" />
        <line
           x1="404.68"
           y1="67.24"
           x2="416.01"
           y2="67.24"
           style="stroke-width:2.13;stroke:#455BCD;stroke-dasharray:11.38, 11.38;stroke-linecap:butt"
           id="line148" />
        <rect
           x="403.26"
           y="79.84"
           width="14.17"
           height="25.20"
           style="stroke-width:1.07;stroke:none;fill:#FFFFFF"
           id="rect150" />
        <line
           x1="404.68"
           y1="92.44"
           x2="416.01"
           y2="92.44"
           style="stroke-width:2.13;stroke:#3E9BFE;stroke-dasharray:11.38, 11.38;stroke-linecap:butt"
           id="line152" />
        <rect
           x="403.26"
           y="105.04"
           width="14.17"
           height="25.20"
           style="stroke-width:1.07;stroke:none;fill:#FFFFFF"
           id="rect154" />
        <line
           x1="404.68"
           y1="117.64"
           x2="416.01"
           y2="117.64"
           style="stroke-width:2.13;stroke:#18D6CB;stroke-dasharray:11.38, 11.38;stroke-linecap:butt"
           id="line156" />
        <rect
           x="403.26"
           y="130.24"
           width="14.17"
           height="25.20"
           style="stroke-width:1.07;stroke:none;fill:#FFFFFF"
           id="rect158" />
        <line
           x1="404.68"
           y1="142.84"
           x2="416.01"
           y2="142.84"
           style="stroke-width:2.13;stroke:#46F884;stroke-dasharray:11.38, 11.38;stroke-linecap:butt"
           id="line160" />
        <rect
           x="403.26"
           y="155.44"
           width="14.17"
           height="25.20"
           style="stroke-width:1.07;stroke:none;fill:#FFFFFF"
           id="rect162" />
        <line
           x1="404.68"
           y1="168.04"
           x2="416.01"
           y2="168.04"
           style="stroke-width:2.13;stroke:#A2FC3C;stroke-dasharray:11.38, 11.38;stroke-linecap:butt"
           id="line164" />
        <rect
           x="403.26"
           y="180.64"
           width="14.17"
           height="25.20"
           style="stroke-width:1.07;stroke:none;fill:#FFFFFF"
           id="rect166" />
        <line
           x1="404.68"
           y1="193.24"
           x2="416.01"
           y2="193.24"
           style="stroke-width:2.13;stroke:#E1DD37;stroke-dasharray:11.38, 11.38;stroke-linecap:butt"
           id="line168" />
        <rect
           x="403.26"
           y="205.84"
           width="14.17"
           height="25.20"
           style="stroke-width:1.07;stroke:none;fill:#FFFFFF"
           id="rect170" />
        <line
           x1="404.68"
           y1="218.44"
           x2="416.01"
           y2="218.44"
           style="stroke-width:2.13;stroke:#FEA632;stroke-dasharray:11.38, 11.38;stroke-linecap:butt"
           id="line172" />
        <rect
           x="403.26"
           y="231.04"
           width="14.17"
           height="25.20"
           style="stroke-width:1.07;stroke:none;fill:#FFFFFF"
           id="rect174" />
        <line
           x1="404.68"
           y1="243.64"
           x2="416.01"
           y2="243.64"
           style="stroke-width:2.13;stroke:#F05B12;stroke-dasharray:11.38, 11.38;stroke-linecap:butt"
           id="line176" />
        <rect
           x="403.26"
           y="256.24"
           width="14.17"
           height="25.20"
           style="stroke-width:1.07;stroke:none;fill:#FFFFFF"
           id="rect178" />
        <line
           x1="404.68"
           y1="268.84"
           x2="416.01"
           y2="268.84"
           style="stroke-width:2.13;stroke:#C42503;stroke-dasharray:11.38, 11.38;stroke-linecap:butt"
           id="line180" />
        <rect
           x="403.26"
           y="281.44"
           width="14.17"
           height="25.20"
           style="stroke-width:1.07;stroke:none;fill:#FFFFFF"
           id="rect182" />
        <line
           x1="404.68"
           y1="294.04"
           x2="416.01"
           y2="294.04"
           style="stroke-width:2.13;stroke:#7A0403;stroke-dasharray:11.38, 11.38;stroke-linecap:butt"
           id="line184" />
        <text
           x="423.41"
           y="46.34"
           style="font-size:12px;font-family:'Arial'"
           textLength="320.19px"
           lengthAdjust="spacingAndGlyphs"
           id="text186">Conrad et al 2019 (Coffs Creek, New South Wales, Australia</text>
        <text
           x="423.41"
           y="71.54"
           style="font-size:12px;font-family:'Arial'"
           textLength="277.51px"
           lengthAdjust="spacingAndGlyphs"
           id="text188">Craft et al 1991 (Louisiana, Coastal Carbon Manual)</text>
        <text
           x="423.41"
           y="96.74"
           style="font-size:12px;font-family:'Arial'"
           textLength="317.53px"
           lengthAdjust="spacingAndGlyphs"
           id="text190">de los Santos et al 2022 (a) (Ria Formosa lagoon, Portugal)</text>
        <text
           x="423.41"
           y="121.94"
           style="font-size:12px;font-family:'Arial'"
           textLength="249.27px"
           lengthAdjust="spacingAndGlyphs"
           id="text192">de los Santos et al 2022 (b) (Cadiz Bay, Spain)</text>
        <text
           x="423.41"
           y="147.14"
           style="font-size:12px;font-family:'Arial'"
           textLength="265.92px"
           lengthAdjust="spacingAndGlyphs"
           id="text194">Gailis et al 2021 (Boundary Bay, British Columbia)</text>
        <text
           x="423.41"
           y="172.34"
           style="font-size:12px;font-family:'Arial'"
           textLength="274.17px"
           lengthAdjust="spacingAndGlyphs"
           id="text196">Howard et al 2014 (Maine, Coastal Carbon Manual)</text>
        <text
           x="423.41"
           y="191.06"
           style="font-size:12px;font-family:'Arial'"
           textLength="264.18px"
           lengthAdjust="spacingAndGlyphs"
           id="text198">Human et al 2022 eq a (Salicornia tegetaria zone,</text>
        <text
           x="423.41"
           y="204.02"
           style="font-size:12px;font-family:'Arial'"
           textLength="241.22px"
           lengthAdjust="spacingAndGlyphs"
           id="text200">                    Swartkops Estuary, South Africa)</text>
        <text
           x="423.41"
           y="216.26"
           style="font-size:12px;font-family:'Arial'"
           textLength="258.83px"
           lengthAdjust="spacingAndGlyphs"
           id="text202">Human et al 2022 eq b (Spartina maritima zone, </text>
        <text
           x="423.41"
           y="229.22"
           style="font-size:12px;font-family:'Arial'"
           textLength="241.22px"
           lengthAdjust="spacingAndGlyphs"
           id="text204">                    Swartkops Estuary, South Africa)</text>
        <text
           x="423.41"
           y="247.94"
           style="font-size:12px;font-family:'Arial'"
           textLength="290.20px"
           lengthAdjust="spacingAndGlyphs"
           id="text206">Kohfeld et al 2022 (Clayoquot Sound, British Columbia</text>
        <text
           x="423.41"
           y="273.14"
           style="font-size:12px;font-family:'Arial'"
           textLength="266.15px"
           lengthAdjust="spacingAndGlyphs"
           id="text208">Martins et al 2022 (Ria Formosa lagoon, Portugal)</text>
        <text
           x="423.41"
           y="298.34"
           style="font-size:12px;font-family:'Arial'"
           textLength="198.32px"
           lengthAdjust="spacingAndGlyphs"
           id="text210">Ward et al 2021 (California estuaries)</text>
        <line
           x1="404.67999"
           y1="319.80341"
           x2="416.01001"
           y2="319.80341"
           style="fill:#000000;stroke:#000000;stroke-width:2.13;stroke-linecap:butt;stroke-dasharray:11.38, 11.38"
           id="line499" />
        <text
           xml:space="preserve"
           transform="matrix(0.75,0,0,0.75,-19.74038,-10.07532)"
           id="text812"
           style="font-style:normal;font-variant:normal;font-weight:normal;font-stretch:normal;font-size:16px;line-height:1.15;font-family:Arial;-inkscape-font-specification:'Arial, Normal';font-variant-ligatures:normal;font-variant-caps:normal;font-variant-numeric:normal;font-variant-east-asian:normal;white-space:pre;shape-inside:url(#rect814);display:inline"><tspan
             x="590.16406"
             y="443.98121"
             id="tspan2156">This dataset (Global)</tspan></text>
      </g>
    </g>
  </g>
</svg>
